<?xml version="1.0" encoding="utf-8"?>
<!-- Generator: Adobe Illustrator 16.0.0, SVG Export Plug-In . SVG Version: 6.00 Build 0)  -->
<!DOCTYPE svg PUBLIC "-//W3C//DTD SVG 1.1//EN" "http://www.w3.org/Graphics/SVG/1.1/DTD/svg11.dtd">
<svg version="1.1" id="Layer_1" xmlns="http://www.w3.org/2000/svg" xmlns:xlink="http://www.w3.org/1999/xlink" x="0px" y="0px"
	 width="60.833px" height="81.667px" viewBox="0 0 60.833 81.667" enable-background="new 0 0 60.833 81.667" xml:space="preserve">
<g>
	<g>
		<path fill="#FFF200" d="M32.999,31.227v0.001c-2.474-8.368-3.202-17.25-1.529-18.635c0.194-0.162,1.028-0.227,2.792,0.681
			c12.11,6.246,20.041,0.228,22.542-3.826l-4.418-2.727l0.012-0.019c-0.499,0.775-5.168,7.417-15.758,1.956
			c-4.36-2.248-7.017-1.278-8.481-0.066c-5.425,4.491-1.478,19.589-0.139,24.109L32.999,31.227z"/>
	</g>
	<g>
		<path fill="#903F98" d="M44.147,29.657c0-7.943-6.439-10.785-14.382-10.785c-7.943,0-14.381,2.842-14.381,10.785v3.595h28.763
			V29.657z"/>
		<path fill="#FFF200" d="M45.346,29.657c0-7.729-5.533-11.984-15.58-11.984c-10.045,0-15.579,4.255-15.579,11.984v3.595v1.199
			h1.198h28.763h1.198v-1.199V29.657z M44.147,32.053H15.385l1.199,1.199v-3.595c0-7.924,7.168-9.587,13.182-9.587
			c6.015,0,13.181,1.663,13.181,9.587v3.595L44.147,32.053z"/>
	</g>
	<g>
		<circle fill="#903F98" cx="29.766" cy="51.228" r="25.167"/>
		<path fill="#FFF200" d="M53.734,51.228c0,13.214-10.752,23.967-23.969,23.967c-6.401,0-12.42-2.493-16.946-7.021
			c-4.527-4.525-7.021-10.545-7.021-16.946c0-13.216,10.754-23.968,23.968-23.968C42.982,27.26,53.734,38.011,53.734,51.228z
			 M29.766,24.863c-14.538,0-26.364,11.827-26.364,26.365c0,7.041,2.744,13.663,7.721,18.642c4.98,4.98,11.603,7.722,18.644,7.722
			c14.538,0,26.364-11.826,26.364-26.363C56.13,36.69,44.304,24.863,29.766,24.863z"/>
	</g>
	<g>
		<circle fill="#FFFFFF" cx="40.551" cy="42.239" r="5.391"/>
	</g>
	<g>
		<circle fill="#FFF200" cx="33.361" cy="38.644" r="5.394"/>
	</g>
</g>
</svg>
