<?xml version="1.0" encoding="utf-8"?>
<!-- Generator: Adobe Illustrator 16.0.0, SVG Export Plug-In . SVG Version: 6.00 Build 0)  -->
<!DOCTYPE svg PUBLIC "-//W3C//DTD SVG 1.1//EN" "http://www.w3.org/Graphics/SVG/1.1/DTD/svg11.dtd">
<svg version="1.1" id="Layer_1" xmlns="http://www.w3.org/2000/svg" xmlns:xlink="http://www.w3.org/1999/xlink" x="0px" y="0px"
	 width="61px" height="68px" viewBox="0 0 61 68" enable-background="new 0 0 61 68" xml:space="preserve">
<g>
	<g>
		<g>
			<g>
				<path fill="#BCBEC0" d="M36.874,20.732c0,1.954-1.584,3.538-3.538,3.538H16.532c-1.954,0-3.537-1.584-3.537-3.538v-8.845
					c0-1.953,1.583-3.538,3.537-3.538h16.804c3.538,0,11.497,5.308,14.148,10.613c2.654,5.307,5.308,13.266,5.308,21.226
					c0,7.961-5.308,21.227-5.308,21.227l-2.651-7.959c0,0,2.651-10.613,2.651-15.92C47.484,32.229,36.874,20.732,36.874,20.732z"/>
			</g>
			<g>
				<rect x="23.606" y="8.35" fill="#6D6E71" width="5.309" height="15.92"/>
			</g>
			<g>
				<path fill="#6D6E71" d="M31.566,24.27h1.77c0.307,0,0.604-0.044,0.887-0.117V8.443c-0.318-0.059-0.617-0.094-0.887-0.094h-1.77
					V24.27z"/>
			</g>
			<g>
				<path d="M36.432,20.732c0,1.707-1.388,3.095-3.096,3.095H16.532c-1.706,0-3.095-1.389-3.095-3.095v-8.845
					c0-1.707,1.389-3.096,3.095-3.096h16.804c3.227,0,11.081,5.023,13.755,10.369c1.583,3.163,5.259,11.543,5.259,21.027
					c0,7.783-5.222,20.932-5.272,21.062c0.067-0.172,0.237-0.283,0.424-0.276c0.187,0.004,0.349,0.127,0.405,0.303l-2.651-7.961
					c0.027,0.08,0.028,0.166,0.009,0.248c0.108-0.438,2.666-10.728,2.666-16.027c0-5.417-10.291-16.628-10.729-17.103
					c-0.123-0.134-0.316-0.179-0.485-0.113C36.543,20.386,36.432,20.548,36.432,20.732z M47.044,37.535
					c0,5.191-2.614,15.707-2.642,15.812c-0.02,0.08-0.016,0.168,0.014,0.247l2.65,7.96c0.062,0.176,0.221,0.297,0.408,0.303
					c0.185,0.006,0.354-0.105,0.422-0.279c0.219-0.545,5.338-13.438,5.338-21.391c0-9.672-3.746-18.205-5.354-21.423
					C45.189,13.38,37.148,7.909,33.336,7.909H16.532c-2.195,0-3.98,1.785-3.98,3.979v8.845c0,2.194,1.785,3.98,3.98,3.98h16.804
					c2.195,0,3.98-1.786,3.98-3.98c0,0.182-0.113,0.346-0.28,0.412c-0.17,0.066-0.364,0.022-0.489-0.11
					C36.654,21.146,47.044,32.462,47.044,37.535z"/>
			</g>
		</g>
		<g>
			<g>
				<path fill="#0DB14B" d="M41.898,42.178c0-8.197-3.346-15.372-8.346-19.32c-2.826-0.375-5.81-0.578-8.898-0.578
					c-3.092,0-6.075,0.203-8.9,0.578c-5.001,3.949-8.346,11.124-8.346,19.32c0,8.198,3.345,15.372,8.346,19.32
					c2.825,0.377,5.809,0.579,8.9,0.579c3.089,0,6.072-0.202,8.898-0.579C38.555,57.55,41.898,50.376,41.898,42.178z"/>
			</g>
			<g>
				<path fill="#007647" d="M19.434,22.479c-1.567,3.992-3.786,10.849-3.786,17.708c0,6.942,2.269,16.153,3.842,21.697
					c1.682,0.125,3.405,0.192,5.166,0.192c1.215,0,2.413-0.032,3.592-0.093c1.506-4.084,3.32-10.284,3.32-16.49
					c0-7.598-2.721-17.914-4.264-23.163c-0.875-0.032-1.757-0.052-2.648-0.052C22.874,22.279,21.133,22.349,19.434,22.479z"/>
			</g>
			<g>
				<path d="M42.343,42.178c0-8.105-3.185-15.459-8.517-19.668l-0.096-0.074l-0.121-0.017c-2.9-0.385-5.915-0.582-8.955-0.582
					c-3.041,0-6.056,0.197-8.955,0.582l-0.121,0.017l-0.097,0.074c-5.332,4.208-8.517,11.562-8.517,19.668
					c0,8.106,3.185,15.461,8.517,19.668l0.097,0.076l0.121,0.016c2.899,0.388,5.914,0.582,8.955,0.582
					c3.04,0,6.054-0.194,8.955-0.582l0.121-0.016l0.096-0.076C39.158,57.639,42.343,50.284,42.343,42.178z M33.493,61.062
					c-2.861,0.379-5.836,0.571-8.838,0.571c-3.002,0-5.979-0.192-8.841-0.571l0.215,0.088C10.984,57.17,7.85,49.898,7.85,42.177
					c0-7.721,3.134-14.992,8.179-18.972l-0.215,0.091c2.862-0.381,5.839-0.574,8.841-0.574c3.002,0,5.977,0.193,8.838,0.574
					l-0.216-0.091c5.047,3.98,8.183,11.251,8.183,18.972c0,7.722-3.136,14.992-8.183,18.974L33.493,61.062z"/>
			</g>
			<g>
				<path fill="#0DB14B" d="M43.018,43.59c0.021-0.467,0.033-0.938,0.033-1.412c0-1.888-0.169-3.727-0.482-5.488
					c-5.312-1.15-11.416-1.807-17.913-1.807c-6.496,0-12.602,0.656-17.914,1.807c-0.314,1.763-0.482,3.602-0.482,5.488
					c0,0.477,0.013,0.945,0.033,1.412c5.417,1.213,11.684,1.904,18.363,1.904C31.334,45.494,37.6,44.803,43.018,43.59z"/>
			</g>
			<g>
				<path fill="#007647" d="M34.215,45.008c-0.058-3.025-0.658-6.439-1.486-9.777c-2.599-0.228-5.3-0.348-8.073-0.348
					c-3.921,0-7.7,0.24-11.246,0.684c-0.262,1.521-0.414,3.072-0.414,4.623c0,1.459,0.135,3.016,0.364,4.619
					c3.563,0.444,7.357,0.688,11.296,0.688C27.959,45.494,31.166,45.324,34.215,45.008z"/>
			</g>
			<g>
				<path d="M43.457,43.609c0.023-0.508,0.036-0.978,0.036-1.433c0-1.875-0.166-3.747-0.49-5.567L42.95,36.32l-0.287-0.062
					c-5.486-1.189-11.715-1.818-18.008-1.818c-6.295,0-12.523,0.628-18.007,1.818L6.357,36.32l-0.052,0.289
					c-0.324,1.82-0.49,3.692-0.49,5.567c0,0.455,0.011,0.925,0.036,1.433l0.014,0.336l0.33,0.076
					c5.6,1.252,11.984,1.914,18.46,1.914c6.476,0,12.859-0.662,18.458-1.914l0.33-0.076L43.457,43.609z M24.655,45.055
					c-6.413,0-12.73-0.656-18.266-1.896l0.345,0.411c-0.021-0.495-0.033-0.95-0.033-1.393c0-1.822,0.159-3.645,0.474-5.41
					l-0.341,0.354c5.427-1.175,11.588-1.796,17.821-1.796c6.231,0,12.396,0.621,17.818,1.796l-0.342-0.354
					c0.316,1.767,0.479,3.588,0.479,5.41c0,0.441-0.012,0.896-0.035,1.393l0.345-0.411C37.384,44.398,31.066,45.055,24.655,45.055z"
					/>
			</g>
		</g>
		<g>
			<g>
				<path fill="#BCBEC0" d="M31.566,18.963c-5.86,0-10.611,4.751-10.611,10.613c0,5.861,4.751,10.611,10.611,10.611
					c5.861,0,10.613-4.75,10.613-10.611C42.18,23.714,37.43,18.963,31.566,18.963z M31.566,37.24c-4.227,0-7.665-3.438-7.665-7.665
					c0-4.226,3.438-7.666,7.665-7.666c4.228,0,7.664,3.439,7.664,7.666C39.23,33.802,35.794,37.24,31.566,37.24z"/>
			</g>
			<g>
				<path fill="#FFFFFF" d="M34.423,22.463c0.366,0.149,0.72,0.323,1.058,0.523l1.346-2.629c-0.344-0.196-0.693-0.374-1.057-0.528
					L34.423,22.463z"/>
			</g>
			<g>
				<path fill="#FFFFFF" d="M26.729,20.131l1.103,2.755c1.104-0.62,2.382-0.976,3.736-0.976c0.578,0,1.146,0.068,1.688,0.19
					l0.486-2.913c-0.702-0.147-1.43-0.225-2.174-0.225C29.823,18.963,28.182,19.386,26.729,20.131z"/>
			</g>
		</g>
		<g>
			<path d="M31.566,18.815c-5.932,0-10.76,4.828-10.76,10.761c0,5.933,4.829,10.76,10.76,10.76c5.935,0,10.761-4.827,10.761-10.76
				C42.327,23.643,37.501,18.815,31.566,18.815z M42.034,29.576c0,5.77-4.696,10.465-10.468,10.465
				c-5.77,0-10.464-4.696-10.464-10.465c0-5.771,4.695-10.465,10.464-10.465C37.338,19.11,42.034,23.805,42.034,29.576z"/>
		</g>
		<g>
			<path d="M31.566,37.093c-4.144,0-7.519-3.372-7.519-7.517s3.375-7.516,7.519-7.516c4.146,0,7.519,3.371,7.519,7.516
				S35.712,37.093,31.566,37.093z M39.38,29.576c0-4.308-3.505-7.812-7.812-7.812c-4.307,0-7.812,3.505-7.812,7.812
				c0,4.308,3.504,7.811,7.812,7.811C35.876,37.387,39.38,33.884,39.38,29.576z"/>
		</g>
	</g>
	<g>
		<path d="M48.824,18.293C45.93,12.511,37.51,6.857,33.336,6.857H16.532c-2.774,0-5.03,2.257-5.03,5.03v8.845
			c0,1.514,0.674,2.933,1.849,3.895c-0.231-0.19-0.371-0.47-0.385-0.769c-0.013-0.299,0.101-0.589,0.317-0.798
			c-3.321,3.237-5.643,7.66-6.719,12.793c0.088-0.414,0.408-0.735,0.821-0.816l-0.339,0.066c-0.204,0.041-0.414,0.082-0.623,0.127
			c0.003,0-0.288,0.062-0.288,0.062c-0.417,0.091-0.737,0.423-0.814,0.843L5.27,36.424c-0.334,1.883-0.504,3.817-0.504,5.754
			c0,0.481,0.01,0.967,0.034,1.48c0-0.004,0.015,0.334,0.015,0.334c0.021,0.473,0.354,0.875,0.817,0.98l0.329,0.073
			c0.186,0.042,0.369,0.078,0.546,0.115l0.319,0.063c-0.466-0.096-0.804-0.486-0.834-0.961c0.507,7.664,3.729,14.373,8.838,18.406
			c0.004,0.004,0.102,0.08,0.102,0.08c0.146,0.113,0.323,0.188,0.51,0.213l0.121,0.016c2.938,0.394,6,0.592,9.093,0.592
			c3.094,0,6.153-0.198,9.095-0.592c-0.005,0,0.119-0.016,0.119-0.016c0.187-0.023,0.36-0.1,0.508-0.213l0.097-0.076
			c5.115-4.037,8.336-10.746,8.844-18.41c-0.03,0.475-0.37,0.865-0.834,0.961l0.318-0.063c0.176-0.037,0.359-0.073,0.543-0.114
			c0.004-0.001,0.331-0.074,0.331-0.074c0.466-0.105,0.798-0.509,0.817-0.98l0.016-0.338c0.024-0.512,0.035-0.995,0.035-1.478
			c0-1.937-0.17-3.87-0.505-5.752c0-0.002-0.052-0.291-0.052-0.291c-0.077-0.419-0.397-0.752-0.813-0.842l-0.288-0.063
			c-0.207-0.043-0.416-0.084-0.619-0.125l-0.345-0.066c0.414,0.081,0.735,0.402,0.822,0.816c-0.126-0.602-0.279-1.222-0.47-1.896
			c0.068,0.247,0.048,0.511-0.064,0.741c0.775-1.606,1.169-3.33,1.169-5.123c0-0.609-0.048-1.223-0.142-1.825
			c0.074,0.478-0.188,0.946-0.635,1.131c-0.446,0.188-0.965,0.044-1.252-0.345c4.039,5.473,4.641,7.986,4.641,8.998
			c0,4.996-2.581,15.451-2.605,15.555c-0.07,0.284-0.059,0.57,0.033,0.84c-0.003-0.002,2.652,7.957,2.652,7.957
			c0.199,0.596,0.753,1.004,1.373,1.021c0.627,0.02,1.201-0.361,1.432-0.946c0.221-0.544,5.413-13.587,5.413-21.774
			C54.289,30.298,50.468,21.582,48.824,18.293z M52.186,40.188c0,7.785-5.211,20.867-5.265,20.998
			c0.091-0.231,0.326-0.387,0.585-0.381c0.253,0.008,0.479,0.174,0.559,0.413c0,0.003-2.651-7.956-2.651-7.956
			c0.036,0.107,0.04,0.223,0.013,0.334c0.024-0.094,2.672-10.719,2.672-16.061c0-2.288-1.652-5.64-5.051-10.248
			c-0.29-0.389-0.805-0.533-1.252-0.345c-0.445,0.186-0.71,0.654-0.635,1.132c0.076,0.496,0.115,1,0.115,1.501
			c0,1.474-0.323,2.89-0.961,4.208c-0.111,0.231-0.133,0.496-0.064,0.742c0.178,0.629,0.316,1.203,0.436,1.758
			c0.086,0.412,0.406,0.732,0.82,0.814l0.357,0.069c0.201,0.041,0.392,0.077,0.576,0.118c0-0.001,0.289,0.062,0.289,0.062
			c-0.416-0.091-0.736-0.423-0.812-0.843l0.051,0.29c0.312,1.757,0.472,3.569,0.472,5.382c0,0.449-0.01,0.901-0.031,1.384
			c0,0.004-0.016,0.34-0.016,0.34c0.021-0.474,0.355-0.875,0.816-0.979l-0.328,0.075c-0.156,0.035-0.322,0.066-0.494,0.104
			l-0.336,0.068c-0.464,0.096-0.801,0.486-0.834,0.959c-0.468,7.071-3.396,13.229-8.042,16.895c0.005-0.004-0.091,0.07-0.091,0.07
			c0.146-0.115,0.323-0.189,0.51-0.213l-0.121,0.016c-2.851,0.381-5.816,0.573-8.816,0.573c-3.002,0-5.97-0.192-8.817-0.573
			c-0.003,0-0.122-0.016-0.122-0.016c0.187,0.023,0.361,0.098,0.508,0.213l-0.094-0.074c-4.641-3.662-7.57-9.818-8.039-16.891
			c-0.032-0.473-0.369-0.863-0.833-0.959L6.923,43.1c-0.174-0.035-0.339-0.067-0.499-0.104c0.005,0-0.325-0.075-0.325-0.075
			c0.462,0.104,0.797,0.507,0.817,0.979l-0.014-0.336c-0.022-0.485-0.034-0.938-0.034-1.388c0-1.812,0.16-3.625,0.473-5.383
			c0,0.001,0.052-0.289,0.052-0.289c-0.075,0.42-0.396,0.752-0.812,0.843l0.288-0.062c0.189-0.041,0.38-0.079,0.582-0.118
			l0.354-0.069c0.415-0.082,0.735-0.4,0.821-0.814c0.987-4.722,3.105-8.774,6.126-11.717c0.214-0.21,0.33-0.5,0.317-0.8
			c-0.015-0.299-0.153-0.579-0.385-0.768c-0.688-0.561-1.08-1.388-1.08-2.267v-8.845c0-1.614,1.313-2.926,2.929-2.926h16.804
			c3.185,0,10.955,4.976,13.604,10.274C48.518,22.389,52.186,30.744,52.186,40.188z"/>
		<path d="M39.962,28.266c-1.032-1.868-2.271-3.536-3.683-4.959c0.223,0.223,0.332,0.534,0.302,0.847
			c-0.031,0.312-0.204,0.595-0.464,0.769c0.248-0.166,0.488-0.359,0.712-0.574c-0.373,0.359-0.954,0.394-1.368,0.08
			c1.424,1.081,2.35,2.706,2.534,4.458c-0.054-0.498,0.252-0.964,0.729-1.114C39.202,27.622,39.721,27.829,39.962,28.266z
			 M35.368,22.835c-0.134,0.127-0.272,0.241-0.416,0.336c-0.265,0.174-0.433,0.456-0.464,0.769
			c-0.032,0.313,0.076,0.623,0.298,0.846c1.272,1.286,2.396,2.799,3.334,4.497c0.241,0.438,0.762,0.646,1.235,0.495
			c0.479-0.151,0.783-0.617,0.731-1.114c-0.249-2.327-1.472-4.481-3.354-5.91C36.318,22.44,35.74,22.475,35.368,22.835z"/>
	</g>
</g>
</svg>
