<?xml version="1.0" encoding="utf-8"?>
<!-- Generator: Adobe Illustrator 16.0.0, SVG Export Plug-In . SVG Version: 6.00 Build 0)  -->
<!DOCTYPE svg PUBLIC "-//W3C//DTD SVG 1.1//EN" "http://www.w3.org/Graphics/SVG/1.1/DTD/svg11.dtd">
<svg version="1.1" id="Layer_1" xmlns="http://www.w3.org/2000/svg" xmlns:xlink="http://www.w3.org/1999/xlink" x="0px" y="0px"
	 width="181.667px" height="166.583px" viewBox="0 0 181.667 166.583" enable-background="new 0 0 181.667 166.583"
	 xml:space="preserve">
<g>
	<g>
		<path fill="#BCBEC0" d="M161.141,60.311c10.884-10.884,7.428-25.074-3.457-35.958c-10.884-10.884-25.074-14.34-35.958-3.456
			l-10.385,10.385c-6.365-0.066-13.156,0.06-20.209,0.06s-13.844-0.125-20.208-0.06L60.538,20.896
			c-10.884-10.884-25.074-7.428-35.958,3.456c-10.885,10.884-14.34,25.074-3.457,35.958l4.641,4.641
			c0.174,14.308,4.931,27.511,12.888,38.2c0.772,13.515,11.973,24.236,25.682,24.236c0.36,0,0.716-0.012,1.073-0.027
			c0,0.01-0.001,0.019-0.001,0.027c0,14.209,11.518,25.727,25.727,25.727c14.208,0,25.726-11.518,25.726-25.727
			c0-0.009-0.001-0.018-0.001-0.027c0.357,0.016,0.715,0.027,1.075,0.027c13.708,0,24.909-10.723,25.681-24.237
			c7.957-10.688,12.713-23.891,12.887-38.198L161.141,60.311z"/>
		<path d="M164.677,63.846c12.02-12.02,10.662-28.91-3.457-43.029c-6.402-6.402-13.606-10.312-20.832-11.309
			c-8.248-1.137-15.924,1.579-22.197,7.853l-10.386,10.385l3.587-1.464c-3.84-0.04-7.753-0.011-11.896,0.019l-8.364,0.041
			L82.769,26.3c-4.144-0.03-8.057-0.059-11.897-0.019l3.587,1.464L64.074,17.36c-6.274-6.274-13.95-8.989-22.197-7.853
			c-7.226,0.996-14.43,4.907-20.832,11.309C6.925,34.936,5.568,51.826,17.587,63.846c0,0,4.641,4.641,4.641,4.641l-1.464-3.475
			c0.182,14.954,4.98,29.174,13.877,41.125l-0.981-2.701c0.927,16.234,14.4,28.951,30.673,28.951c0.458,0,0.885-0.016,1.278-0.031
			l-5.205-4.996l0.007-0.256l-0.007,0.135c0,0.014,0,0.148,0,0.148c0,16.943,13.784,30.727,30.727,30.727
			c16.942,0,30.726-13.783,30.726-30.727v-0.066c-0.001-0.014-0.002-0.08-0.002-0.08l0.001,0.119l-5.211,4.996
			c0.37,0.016,0.812,0.031,1.286,0.031c16.272,0,29.745-12.717,30.672-28.952l-0.981,2.7c8.896-11.949,13.695-26.169,13.877-41.123
			l-1.464,3.475C160.036,68.487,164.677,63.846,164.677,63.846z M151.5,64.891c-0.156,12.83-4.271,25.028-11.899,35.274
			l-0.895,1.203l-0.086,1.497c-0.625,10.947-9.713,19.522-20.688,19.522c-0.286,0-0.597-0.012-0.862-0.023l-5.213-0.221v5.217v0.066
			c0,0.015,0.002,0.081,0.002,0.081l-0.001-0.12c0,11.429-9.298,20.727-20.726,20.727c-11.429,0-20.727-9.298-20.727-20.727
			l-0.007,0.257l0.007-0.135c0-0.015,0-0.149,0-0.149v-5.209l-5.205,0.214c-0.286,0.012-0.589,0.022-0.868,0.022
			c-10.977,0-20.064-8.574-20.69-19.521l-0.085-1.498l-0.896-1.203c-7.629-10.246-11.744-22.444-11.899-35.274l-0.024-2.036
			l-1.439-1.439l-4.641-4.641c-11.798-11.799-0.337-25.094,3.457-28.887c4.778-4.778,10.15-7.788,15.126-8.474
			c5.099-0.703,9.729,0.985,13.76,5.018l10.385,10.385l1.486,1.486l2.102-0.022c3.752-0.039,7.623-0.01,11.72,0.02l8.437,0.041
			l8.437-0.041c4.098-0.03,7.968-0.058,11.72-0.02l2.102,0.022l1.486-1.486l10.385-10.385c4.032-4.032,8.662-5.72,13.761-5.018
			c4.976,0.686,10.349,3.695,15.126,8.474c3.795,3.793,15.256,17.088,3.457,28.888c0,0-4.641,4.641-4.641,4.641l-1.439,1.439
			L151.5,64.891z"/>
	</g>
	<g>
		<g>
			<g>
				<path fill="#FFDB78" d="M24.58,24.352c-10.885,10.884-14.34,25.074-3.457,35.958l25.771,25.772l39.415-39.416L60.538,20.896
					C49.654,10.012,35.464,13.468,24.58,24.352z"/>
				<path d="M23.52,23.292c-12.616,12.615-13.973,27.562-3.457,38.08l25.771,25.772l1.061,1.061l1.061-1.061L87.37,47.728
					l1.061-1.061l-1.061-1.061L61.599,19.835c-5.469-5.47-12.124-7.842-19.244-6.86C35.891,13.866,29.378,17.434,23.52,23.292z
					 M59.478,21.957l25.771,25.771v-2.121L45.834,85.022h2.121L22.184,59.25c-11.199-11.201-5.557-24.823,3.457-33.837
					c5.392-5.392,11.313-8.665,17.124-9.466C48.918,15.099,54.698,17.177,59.478,21.957z"/>
			</g>
			<g>
				<path fill="#FFDB78" d="M157.684,24.352c10.885,10.884,14.341,25.074,3.457,35.958L135.37,86.083L95.955,46.667l25.771-25.771
					C132.61,10.012,146.8,13.468,157.684,24.352z"/>
				<path d="M156.624,25.413c9.015,9.014,14.656,22.637,3.457,33.837l-25.771,25.772h2.121L97.015,45.606v2.121l25.771-25.771
					C133.986,10.757,147.609,16.398,156.624,25.413z M120.666,19.835L94.894,45.606l-1.061,1.061l1.061,1.061l39.415,39.416
					l1.061,1.061l1.061-1.061l25.771-25.772c10.517-10.517,9.159-25.464-3.457-38.08c-5.858-5.858-12.371-9.425-18.835-10.316
					C132.789,11.994,126.134,14.366,120.666,19.835z"/>
			</g>
		</g>
		<g>
			<path fill="#0072BC" d="M156.521,64.143c0,36.112-29.276,65.389-65.389,65.389s-65.389-29.276-65.389-65.389
				c0-36.113,29.276-32.802,65.389-32.802S156.521,28.03,156.521,64.143z"/>
			<path d="M155.021,64.143c0,35.229-28.66,63.889-63.889,63.889c-35.229,0-63.889-28.66-63.889-63.889
				c0-10.197,2.381-17.517,7.279-22.378c9.318-9.25,27.329-9.118,48.184-8.965l8.426,0.041l8.426-0.041
				c20.854-0.153,38.865-0.286,48.184,8.965C152.64,46.626,155.021,53.946,155.021,64.143z M91.132,29.841L82.728,29.8
				c-21.525-0.158-40.114-0.294-50.319,9.835c-5.494,5.454-8.165,13.471-8.165,24.508c0,36.883,30.006,66.889,66.889,66.889
				s66.889-30.006,66.889-66.889c0-11.037-2.672-19.054-8.166-24.508c-10.205-10.13-28.794-9.994-50.318-9.835L91.132,29.841z"/>
		</g>
		<g>
			<g>
				<circle fill="#0DB14B" cx="117.931" cy="101.661" r="25.727"/>
				<path d="M142.158,101.661c0,13.359-10.867,24.227-24.226,24.227s-24.228-10.867-24.228-24.227
					c0-13.357,10.869-24.226,24.228-24.226S142.158,88.303,142.158,101.661z M117.932,74.435c-15.013,0-27.227,12.214-27.227,27.226
					c0,15.014,12.214,27.227,27.227,27.227s27.226-12.213,27.226-27.227C145.158,86.649,132.945,74.435,117.932,74.435z"/>
			</g>
			<g>
				<circle fill="#0DB14B" cx="64.333" cy="101.661" r="25.727"/>
				<path d="M88.56,101.661c0,13.359-10.868,24.227-24.226,24.227c-13.359,0-24.228-10.867-24.228-24.227
					c0-13.357,10.869-24.226,24.228-24.226C77.692,77.435,88.56,88.303,88.56,101.661z M64.333,74.435
					c-15.013,0-27.228,12.214-27.228,27.226c0,15.014,12.214,27.227,27.228,27.227c15.013,0,27.226-12.213,27.226-27.227
					C91.56,86.649,79.346,74.435,64.333,74.435z"/>
			</g>
		</g>
		<g>
			<path fill="#BCBEC0" d="M116.858,127.387c0,14.209-11.518,25.727-25.726,25.727c-14.209,0-25.727-11.518-25.727-25.727
				s11.518-19.209,25.727-19.209C105.34,108.178,116.858,113.178,116.858,127.387z"/>
			<path d="M115.358,127.387c0,13.359-10.868,24.227-24.226,24.227c-13.358,0-24.227-10.867-24.227-24.227
				c0-14.637,13.174-17.709,24.227-17.709C102.183,109.678,115.358,112.75,115.358,127.387z M91.132,106.678
				c-17.557,0-27.227,7.355-27.227,20.709c0,15.014,12.214,27.227,27.227,27.227c15.012,0,27.226-12.213,27.226-27.227
				C118.358,114.034,108.689,106.678,91.132,106.678z"/>
		</g>
	</g>
</g>
</svg>
