<?xml version="1.0" encoding="utf-8"?>
<!-- Generator: Adobe Illustrator 16.0.0, SVG Export Plug-In . SVG Version: 6.00 Build 0)  -->
<!DOCTYPE svg PUBLIC "-//W3C//DTD SVG 1.1//EN" "http://www.w3.org/Graphics/SVG/1.1/DTD/svg11.dtd">
<svg version="1.1" id="Layer_1" xmlns="http://www.w3.org/2000/svg" xmlns:xlink="http://www.w3.org/1999/xlink" x="0px" y="0px"
	 width="224.167px" height="240px" viewBox="0 0 224.167 240" enable-background="new 0 0 224.167 240" xml:space="preserve">
<g>
	<g>
		<path fill="#F9CBDF" d="M153.368,143.696l62.439-56.033l-35.668,13.72l3.658-63.106l-40.241,39.327L112.026,9.01l-31.53,68.593
			L40.254,38.276l3.659,63.106L8.244,87.663l62.216,56.602c-1.086,2.909-1.872,5.963-2.327,9.124l-24.395,10.491v0.002
			l26.892,11.565c4.871,14.748,15.019,31.364,24.789,42.012c-0.001,0-0.001,0-0.001,0c0.008,0.009,0.015,0.016,0.022,0.024
			c0.348,0.378,0.694,0.748,1.041,1.111c0.109,0.114,0.219,0.225,0.327,0.338c0.245,0.253,0.489,0.504,0.732,0.748
			c0.124,0.125,0.249,0.248,0.372,0.371c0.238,0.236,0.477,0.468,0.714,0.695c0.113,0.109,0.228,0.22,0.341,0.327
			c0.31,0.293,0.618,0.579,0.926,0.857c0.035,0.032,0.072,0.066,0.106,0.099c0.342,0.308,0.683,0.604,1.021,0.893
			c0.101,0.086,0.2,0.168,0.301,0.253c0.241,0.202,0.481,0.4,0.721,0.592c0.115,0.094,0.23,0.185,0.345,0.275
			c0.233,0.185,0.466,0.361,0.697,0.535c0.104,0.078,0.208,0.157,0.311,0.233c0.31,0.228,0.617,0.446,0.921,0.654
			c0.02,0.014,0.039,0.028,0.059,0.042c0.323,0.22,0.644,0.426,0.961,0.623c0.095,0.059,0.188,0.113,0.281,0.17
			c0.225,0.136,0.448,0.268,0.671,0.392c0.106,0.06,0.212,0.118,0.318,0.175c0.217,0.117,0.432,0.227,0.645,0.332
			c0.095,0.046,0.19,0.095,0.283,0.139c0.294,0.138,0.585,0.268,0.87,0.382c0.008,0.003,0.017,0.007,0.024,0.011
			c0.293,0.116,0.581,0.217,0.866,0.309c0.087,0.028,0.173,0.051,0.259,0.076c0.199,0.06,0.397,0.112,0.593,0.158
			c0.096,0.022,0.19,0.043,0.285,0.062c0.192,0.039,0.382,0.07,0.568,0.096c0.083,0.012,0.167,0.025,0.249,0.034
			c0.264,0.028,0.524,0.046,0.778,0.046s0.515-0.018,0.778-0.046c0.081-0.009,0.165-0.022,0.249-0.034
			c0.187-0.025,0.375-0.057,0.567-0.096c0.095-0.02,0.19-0.04,0.285-0.062c0.196-0.046,0.394-0.099,0.594-0.158
			c0.086-0.025,0.171-0.048,0.258-0.076c0.285-0.092,0.574-0.192,0.868-0.31c0.006-0.002,0.013-0.006,0.02-0.008
			c0.287-0.115,0.58-0.245,0.875-0.384c0.092-0.044,0.186-0.091,0.278-0.137c0.216-0.106,0.433-0.217,0.651-0.336
			c0.104-0.056,0.208-0.112,0.312-0.171c0.226-0.126,0.451-0.259,0.68-0.397c0.091-0.055,0.182-0.107,0.272-0.164
			c0.32-0.198,0.642-0.406,0.967-0.628c0.009-0.005,0.017-0.012,0.024-0.018c0.317-0.216,0.637-0.443,0.958-0.681
			c0.096-0.07,0.192-0.145,0.289-0.216c0.24-0.181,0.481-0.366,0.725-0.558c0.106-0.084,0.214-0.169,0.321-0.256
			c0.251-0.201,0.503-0.409,0.756-0.623c0.09-0.074,0.178-0.146,0.267-0.223c0.345-0.294,0.691-0.597,1.04-0.911
			c0.009-0.007,0.017-0.015,0.025-0.022c0.336-0.304,0.673-0.617,1.013-0.938c0.098-0.092,0.195-0.188,0.293-0.28
			c0.257-0.246,0.513-0.496,0.771-0.751c0.108-0.107,0.217-0.215,0.325-0.324c0.268-0.269,0.535-0.543,0.804-0.82
			c0.086-0.091,0.173-0.179,0.26-0.27c0.358-0.376,0.717-0.757,1.077-1.149c0.002-0.002,0.003-0.004,0.005-0.006l0,0
			c9.77-10.647,19.918-27.264,24.79-42.012l26.89-11.565v-0.002l-24.394-10.491C155.435,150.019,154.566,146.776,153.368,143.696z"
			/>
		<path d="M155.201,145.739l62.439-56.033c0.985-0.885,1.198-2.347,0.508-3.476c-0.691-1.129-2.09-1.604-3.325-1.128l-35.669,13.719
			c0.87-0.334,1.851-0.204,2.604,0.346s1.175,1.444,1.121,2.375l3.658-63.106c0.065-1.131-0.57-2.187-1.602-2.656
			c-1.031-0.469-2.245-0.257-3.056,0.535l-40.241,39.327c0.639-0.624,1.54-0.898,2.418-0.735c0.877,0.162,1.62,0.741,1.993,1.551
			L114.52,7.864c-0.448-0.974-1.422-1.598-2.493-1.598c-1.072,0-2.046,0.624-2.493,1.598l-31.53,68.593
			c0.372-0.81,1.116-1.389,1.993-1.551c0.878-0.163,1.779,0.111,2.418,0.735L42.172,36.314c-0.811-0.792-2.024-1.004-3.055-0.535
			c-1.031,0.47-1.668,1.525-1.603,2.656l3.658,63.106c-0.054-0.931,0.368-1.825,1.121-2.375s1.733-0.68,2.604-0.346L9.229,85.102
			c-1.232-0.475-2.627-0.003-3.32,1.12c-0.693,1.124-0.488,2.582,0.488,3.471l62.216,56.602c-0.829-0.755-1.116-1.939-0.724-2.989
			c-1.164,3.118-1.995,6.379-2.473,9.692c0.137-0.946,0.755-1.753,1.632-2.13l-24.395,10.491c-1.007,0.434-1.66,1.425-1.66,2.521
			c0,1.097,0.653,2.089,1.66,2.522l26.891,11.565c-0.721-0.31-1.274-0.914-1.521-1.66c4.813,14.574,14.772,31.455,25.372,43.006
			c-0.735-0.802-0.928-1.963-0.489-2.959c0.438-0.997,1.423-1.64,2.512-1.64c-1.516,0-2.745,1.229-2.745,2.744
			c0,0.692,0.262,1.359,0.733,1.867c0.36,0.393,0.724,0.779,1.089,1.163c0.004,0.004,0.199,0.206,0.199,0.206l0.138,0.142
			c0.004,0.003,0.761,0.776,0.761,0.776c0.002,0.003,0.389,0.388,0.389,0.388c-0.002-0.001,0.742,0.724,0.742,0.724
			c0.004,0.004,0.112,0.108,0.112,0.108l0.249,0.237c0.323,0.307,0.65,0.609,0.967,0.896c-0.012-0.01,0.031,0.029,0.031,0.029
			l0.064,0.059c0.354,0.318,0.704,0.627,1.091,0.956c0.001,0.002,0.212,0.179,0.212,0.179l0.105,0.088
			c0.263,0.221,0.521,0.434,0.768,0.631c-0.002-0.001,0.365,0.291,0.365,0.291c0.226,0.179,0.463,0.36,0.744,0.572l0.079,0.06
			l0.25,0.188c0.365,0.268,0.689,0.498,1.003,0.713c-0.004-0.003,0.035,0.026,0.087,0.06c0.321,0.219,0.666,0.442,1.034,0.672
			c0.089,0.055,0.174,0.105,0.248,0.15l0.067,0.04c0.284,0.171,0.522,0.311,0.748,0.437c0.124,0.069,0.255,0.141,0.353,0.193
			c0.238,0.129,0.486,0.256,0.737,0.379c0.002,0.001,0.086,0.043,0.086,0.043c0.07,0.035,0.15,0.075,0.237,0.116
			c0.375,0.176,0.706,0.321,1.017,0.445c-0.042-0.017-0.061-0.025-0.103-0.044c0.045,0.021,0.091,0.04,0.137,0.059
			c0.325,0.13,0.666,0.251,1.041,0.371c0.098,0.031,0.184,0.056,0.253,0.076l0.064,0.019c0.266,0.078,0.508,0.143,0.746,0.199
			c0.122,0.027,0.238,0.054,0.355,0.078c0.255,0.051,0.496,0.091,0.753,0.126c0.003,0.001,0.061,0.01,0.061,0.01
			c0.066,0.01,0.158,0.023,0.262,0.035c0.397,0.041,0.746,0.062,1.077,0.062c0.33,0,0.68-0.021,1.067-0.062
			c0.113-0.012,0.204-0.025,0.271-0.035l0.058-0.009c0.26-0.036,0.501-0.076,0.74-0.124c0.133-0.027,0.249-0.054,0.361-0.079
			c0.244-0.057,0.487-0.122,0.753-0.2c0.003-0.001,0.067-0.02,0.067-0.02c0.069-0.021,0.155-0.045,0.254-0.077
			c0.379-0.121,0.722-0.244,1.045-0.373c-0.026,0.011-0.053,0.021-0.08,0.031c0.066-0.024,0.143-0.056,0.207-0.085
			c-0.064,0.029-0.12,0.052-0.188,0.076c0.027-0.01,0.054-0.02,0.081-0.03c0.318-0.128,0.653-0.274,1.024-0.449
			c0.094-0.044,0.178-0.086,0.252-0.123l0.073-0.036c0.262-0.129,0.506-0.254,0.742-0.382c0.104-0.057,0.226-0.122,0.353-0.194
			c0.223-0.124,0.465-0.265,0.754-0.439c0.001-0.001,0.088-0.053,0.088-0.053c0.062-0.038,0.135-0.08,0.212-0.128
			c0.375-0.234,0.722-0.459,1.062-0.691c-0.02,0.014-0.039,0.027-0.059,0.039c0.046-0.028,0.105-0.07,0.149-0.102
			c-0.006,0.003-0.058,0.039-0.062,0.043c0.329-0.225,0.669-0.466,1.036-0.736c0.013-0.009,0.215-0.16,0.215-0.16l0.097-0.073
			c0.257-0.192,0.518-0.394,0.773-0.594c0.001-0.001,0.348-0.277,0.348-0.277c0.249-0.2,0.521-0.424,0.802-0.66
			c-0.012,0.01,0.049-0.04,0.049-0.04l0.23-0.194c0.388-0.33,0.746-0.645,1.095-0.959c0.359-0.324,0.705-0.646,1.087-1.006
			l0.182-0.173l0.118-0.114c0.01-0.009,0.808-0.787,0.808-0.787c0.007-0.006,0.342-0.341,0.342-0.341
			c-0.001,0.001,0.832-0.849,0.832-0.849c0.012-0.013,0.139-0.144,0.139-0.144l0.127-0.132c0.422-0.442,0.785-0.83,1.119-1.194
			c0.062-0.066,0.119-0.136,0.173-0.209c-0.077,0.104-0.157,0.196-0.249,0.288c0.027-0.027,0.056-0.057,0.081-0.085
			c10.6-11.551,20.559-28.433,25.373-43.007c-0.246,0.745-0.8,1.35-1.521,1.66l26.89-11.565c1.007-0.434,1.66-1.425,1.66-2.521
			c0-1.097-0.653-2.089-1.66-2.522l-24.394-10.491c0.877,0.377,1.495,1.184,1.632,2.129c-0.506-3.509-1.418-6.973-2.71-10.295
			C156.34,143.766,156.051,144.975,155.201,145.739z M154.835,155.909l24.395,10.491c-1.007-0.433-1.66-1.424-1.66-2.521
			c0-1.096,0.653-2.086,1.66-2.519l-26.891,11.565c-0.721,0.31-1.274,0.914-1.521,1.66c-4.52,13.68-14.247,30.163-24.206,41.018
			c0.026-0.029,0.054-0.058,0.082-0.085c-0.093,0.092-0.183,0.195-0.261,0.299c0.055-0.072,0.112-0.142,0.174-0.209
			c-0.311,0.339-0.651,0.702-1.042,1.112c0.008-0.008-0.097,0.1-0.097,0.1l-0.162,0.168c0.012-0.012-0.764,0.779-0.764,0.779
			c0,0.001-0.314,0.314-0.314,0.314c0.006-0.006-0.736,0.717-0.736,0.717c0.01-0.009-0.132,0.127-0.132,0.127l-0.146,0.139
			c-0.353,0.334-0.669,0.627-0.969,0.897c0.019-0.016,0.036-0.032,0.055-0.048c-0.027,0.023-0.08,0.07-0.106,0.095
			c-0.281,0.254-0.604,0.536-0.953,0.835l-0.177,0.147l-0.065,0.055c-0.259,0.218-0.496,0.414-0.718,0.591
			c-0.005,0.004-0.302,0.24-0.302,0.24c-0.222,0.175-0.448,0.349-0.673,0.518c-0.002,0.001-0.108,0.082-0.108,0.082l-0.171,0.128
			c-0.304,0.223-0.592,0.428-0.867,0.616c-0.024,0.016-0.058,0.04-0.081,0.057c0.044-0.032,0.073-0.052,0.119-0.081
			c-0.02,0.013-0.039,0.025-0.059,0.039c-0.279,0.189-0.565,0.374-0.874,0.566c-0.032,0.021-0.074,0.045-0.121,0.073l-0.122,0.073
			c-0.232,0.141-0.422,0.252-0.597,0.349c-0.098,0.055-0.191,0.105-0.279,0.153c-0.175,0.095-0.357,0.188-0.559,0.287
			c-0.004,0.002-0.095,0.048-0.095,0.048c-0.054,0.026-0.104,0.052-0.142,0.069c-0.271,0.127-0.508,0.231-0.725,0.317
			c0.027-0.011,0.054-0.021,0.081-0.03c-0.067,0.024-0.143,0.056-0.208,0.085c0.065-0.029,0.121-0.053,0.188-0.077
			c-0.026,0.011-0.053,0.021-0.08,0.031c-0.205,0.082-0.431,0.162-0.688,0.245c-0.015,0.005-0.054,0.017-0.082,0.024l-0.117,0.033
			c-0.161,0.048-0.306,0.087-0.438,0.117c-0.065,0.016-0.142,0.032-0.217,0.048c-0.11,0.022-0.241,0.044-0.383,0.063
			c0.003,0-0.122,0.018-0.122,0.018c-0.021,0.003-0.051,0.008-0.062,0.009c-0.177,0.019-0.337,0.029-0.472,0.029
			c-0.136,0-0.296-0.011-0.489-0.03c0.007,0-0.022-0.005-0.044-0.008l-0.125-0.018c-0.139-0.02-0.27-0.041-0.396-0.066
			c-0.06-0.013-0.136-0.029-0.209-0.046c-0.125-0.029-0.273-0.069-0.434-0.116c0.003,0-0.114-0.033-0.114-0.033
			c-0.028-0.008-0.067-0.02-0.081-0.023c-0.257-0.083-0.483-0.164-0.694-0.247c0.046,0.019,0.092,0.037,0.137,0.059
			c-0.055-0.025-0.133-0.059-0.188-0.08c-0.177-0.071-0.415-0.176-0.691-0.306c-0.027-0.013-0.074-0.036-0.124-0.062l-0.115-0.057
			c-0.188-0.092-0.374-0.188-0.552-0.284c-0.08-0.043-0.176-0.095-0.271-0.148c-0.182-0.102-0.369-0.211-0.602-0.352
			c-0.003-0.002-0.081-0.048-0.081-0.048c-0.061-0.036-0.117-0.071-0.167-0.102c-0.307-0.191-0.59-0.374-0.869-0.563
			c0.012,0.007-0.014-0.012-0.046-0.033c-0.269-0.185-0.547-0.382-0.854-0.606c0.011,0.008-0.197-0.148-0.197-0.148l-0.084-0.063
			c-0.249-0.188-0.455-0.346-0.648-0.498c-0.001-0.001-0.324-0.259-0.324-0.259c-0.216-0.173-0.441-0.358-0.673-0.554
			c-0.002-0.001-0.125-0.104-0.125-0.104l-0.164-0.137c-0.346-0.296-0.662-0.572-0.963-0.844c0.016,0.015-0.026-0.024-0.026-0.024
			l-0.064-0.06c-0.298-0.27-0.595-0.544-0.893-0.826c-0.004-0.003-0.209-0.2-0.209-0.2l-0.119-0.114
			c0.004,0.004-0.679-0.662-0.679-0.662c-0.002-0.002-0.361-0.359-0.361-0.359c0.002,0.003-0.704-0.72-0.704-0.72
			c0.004,0.004-0.151-0.155-0.151-0.155l-0.168-0.174c-0.337-0.354-0.676-0.715-1-1.069c-0.015-0.016-0.04-0.042-0.055-0.058
			c0.491,0.512,0.755,1.181,0.755,1.89c0,1.516-1.229,2.743-2.743,2.743c1.088,0,2.073-0.643,2.511-1.64
			c0.438-0.996,0.246-2.157-0.489-2.959c-9.959-10.854-19.687-27.337-24.206-41.017c-0.245-0.745-0.799-1.35-1.521-1.66
			l-26.892-11.565c1.008,0.433,1.66,1.424,1.66,2.521c0,1.096-0.652,2.086-1.66,2.519l24.396-10.491
			c0.877-0.378,1.495-1.185,1.631-2.13c0.421-2.925,1.155-5.804,2.182-8.556c0.393-1.05,0.105-2.233-0.724-2.988L10.091,85.633
			c0.977,0.889,1.182,2.347,0.489,3.47c-0.693,1.124-2.089,1.595-3.321,1.121l35.669,13.719c0.87,0.335,1.851,0.205,2.603-0.345
			c0.754-0.55,1.176-1.444,1.122-2.375l-3.659-63.105c0.065,1.131-0.57,2.187-1.602,2.655c-1.031,0.47-2.245,0.258-3.055-0.534
			l40.241,39.327c0.638,0.623,1.54,0.897,2.417,0.735s1.621-0.741,1.994-1.552l31.53-68.594c-0.448,0.974-1.422,1.598-2.493,1.598
			c-1.072,0-2.046-0.624-2.493-1.598l31.53,68.594c0.373,0.811,1.116,1.39,1.994,1.552c0.877,0.162,1.778-0.112,2.417-0.735
			l40.241-39.327c-0.811,0.792-2.023,1.004-3.055,0.534c-1.031-0.469-1.668-1.524-1.603-2.655l-3.658,63.105
			c-0.054,0.931,0.368,1.825,1.121,2.375s1.733,0.68,2.603,0.345l35.669-13.719c-1.235,0.475-2.635,0-3.325-1.129
			c-0.691-1.129-0.478-2.591,0.508-3.475l-62.439,56.033c-0.85,0.764-1.139,1.973-0.725,3.037c1.141,2.935,1.946,5.992,2.393,9.088
			C153.34,154.725,153.958,155.531,154.835,155.909z"/>
	</g>
	<g>
		<polygon fill="#F9CBDF" points="112.026,151.684 144.468,151.684 215.808,87.663 180.14,101.382 183.798,38.276 143.557,77.603 
			112.026,9.01 80.496,77.603 40.254,38.276 43.913,101.382 8.244,87.663 78.615,151.684 		"/>
		<path d="M112.026,152.598h32.441h0.351l0.261-0.233l71.34-64.021l-0.939-1.534l-35.668,13.719l1.241,0.907l3.658-63.105
			l0.137-2.358l-1.689,1.651l-40.241,39.326l1.471,0.272l-31.53-68.593l-0.831-1.809l-0.831,1.809L79.664,77.221l1.472-0.272
			L40.894,37.623l-1.689-1.651l0.137,2.358l3.658,63.105l1.242-0.907L8.572,86.809l-0.943,1.53L78,152.36l0.262,0.238h0.354H112.026
			z M79.231,151.007L8.859,86.987l-0.943,1.53l35.668,13.719l1.324,0.51l-0.082-1.416l-3.659-63.106l-1.552,0.707l40.241,39.327
			l0.928,0.907l0.543-1.179l31.53-68.594h-1.662l31.53,68.594l0.542,1.179l0.929-0.907l40.241-39.327l-1.552-0.707l-3.659,63.106
			l-0.082,1.416l1.323-0.51l35.668-13.719l-0.938-1.535l-71.341,64.021l0.611-0.234h-32.441H78.615L79.231,151.007z"/>
	</g>
	<g>
		<g>
			<path fill="#F9CBDF" d="M43.738,163.881l42.527,18.291c9.345,0,16.92-8.947,16.92-18.291c0-9.345-7.575-18.293-16.919-18.293
				l-42.528,18.291V163.881z"/>
			<path d="M43.377,164.721l42.527,18.291l0.173,0.074h0.188c9.501,0,17.835-8.975,17.835-19.205
				c0-10.232-8.334-19.207-17.834-19.207h-0.188l-0.173,0.074L43.377,163.04l-0.553,0.238v0.602v0.603
				C42.824,164.483,43.377,164.721,43.377,164.721z M44.1,164.72l42.528-18.291l-0.361,0.074c8.525,0,16.004,8.12,16.004,17.378
				c0,9.257-7.479,17.376-16.005,17.376l0.361,0.074L44.1,163.041l0.554,0.841L44.1,164.72z"/>
		</g>
		<g>
			<path fill="#F9CBDF" d="M180.313,163.879l-42.528-18.291c-9.344,0-16.919,8.948-16.919,18.293
				c0,9.343,7.575,18.291,16.919,18.291l42.528-18.291V163.879z"/>
			<path d="M180.675,163.04l-42.527-18.291l-0.174-0.074h-0.188c-9.5,0-17.833,8.975-17.833,19.207
				c-0.001,5.153,2.154,10.264,5.912,14.021c3.342,3.344,7.576,5.184,11.921,5.184h0.188l0.174-0.074l42.527-18.291l0.554-0.238
				v-0.602v-0.603C181.229,163.278,180.675,163.04,180.675,163.04z M179.952,163.041l-42.528,18.291l0.361-0.074
				c-3.856,0-7.631-1.65-10.628-4.647c-3.366-3.366-5.376-8.125-5.376-12.729c0-9.258,7.479-17.378,16.004-17.378l-0.361-0.074
				l42.528,18.291l-0.554-0.841L179.952,163.041z"/>
		</g>
	</g>
	<g>
		<path fill="#6E92A3" d="M156.383,159.765c0,24.497-30.181,68.746-44.356,68.746S67.67,184.262,67.67,159.765
			s19.858-44.356,44.356-44.356C136.523,115.409,156.383,135.268,156.383,159.765z"/>
		<path d="M155.468,159.765c0,10.932-6.403,27.43-16.711,43.056c-9.775,14.819-20.518,24.776-26.73,24.776
			c-13.461,0-43.442-43.273-43.442-67.832c0-23.954,19.488-43.441,43.442-43.441c11.604,0,22.513,4.519,30.718,12.724
			S155.468,148.162,155.468,159.765z M112.026,114.494c-24.963,0-45.271,20.309-45.271,45.271c0,13.472,8.789,31.595,17.014,44.063
			c8.163,12.374,19.873,25.598,28.258,25.598s20.095-13.224,28.258-25.598c8.225-12.469,17.014-30.592,17.014-44.063
			c0-12.093-4.709-23.461-13.26-32.012S124.119,114.494,112.026,114.494z"/>
	</g>
	<g>
		<circle fill="#F9CBDF" cx="112.026" cy="157.327" r="34.296"/>
		<path d="M145.407,157.327c0,18.406-14.975,33.381-33.381,33.381c-18.407,0-33.382-14.975-33.382-33.381
			c0-18.407,14.975-33.383,33.382-33.383C130.433,123.944,145.407,138.919,145.407,157.327z M112.026,122.115
			c-19.415,0-35.211,15.796-35.211,35.212c0,19.415,15.796,35.21,35.211,35.21s35.21-15.795,35.21-35.21
			C147.236,137.911,131.441,122.115,112.026,122.115z"/>
	</g>
	<g>
		<path fill="#F9CBDF" d="M112.026,228.511c4.439,0,10.447-4.34,16.607-11.053c-3.625-5.291-9.71-8.764-16.607-8.764
			s-12.983,3.473-16.608,8.764C101.578,224.171,107.587,228.511,112.026,228.511z"/>
		<path d="M112.026,229.426c5.677,0,12.53-6.172,17.281-11.35l0.492-0.535l-0.411-0.6c-3.931-5.736-10.421-9.162-17.362-9.162
			c-6.942,0-13.433,3.426-17.363,9.162l-0.41,0.6l0.491,0.535C99.495,223.254,106.35,229.426,112.026,229.426z M96.172,217.975
			c3.59-5.238,9.517-8.365,15.854-8.365c6.337,0,12.264,3.127,15.854,8.365l0.08-1.135c-6.365,6.937-12.023,10.757-15.934,10.757
			s-9.569-3.82-15.935-10.757L96.172,217.975z"/>
	</g>
</g>
</svg>
