<?xml version="1.0" encoding="utf-8"?>
<!-- Generator: Adobe Illustrator 16.0.0, SVG Export Plug-In . SVG Version: 6.00 Build 0)  -->
<!DOCTYPE svg PUBLIC "-//W3C//DTD SVG 1.1//EN" "http://www.w3.org/Graphics/SVG/1.1/DTD/svg11.dtd">
<svg version="1.1" id="Layer_1" xmlns="http://www.w3.org/2000/svg" xmlns:xlink="http://www.w3.org/1999/xlink" x="0px" y="0px"
	 width="140px" height="175px" viewBox="0 0 140 175" enable-background="new 0 0 140 175" xml:space="preserve">
<g>
	<g>
		<path fill="#F7941E" d="M114.307,72.253c0.232-1.856,0.359-3.745,0.359-5.664c0-4.582-0.689-9.002-1.963-13.168
			c5.726-4.079,9.463-10.767,9.463-18.332c0-12.427-10.073-22.5-22.5-22.5c-7.959,0-14.947,4.136-18.947,10.372
			c-3.537-0.894-7.238-1.372-11.053-1.372c-3.814,0-7.516,0.479-11.053,1.372c-4-6.236-10.988-10.372-18.947-10.372
			c-12.427,0-22.5,10.073-22.5,22.5c0,7.565,3.737,14.253,9.462,18.332c-1.273,4.166-1.962,8.586-1.962,13.168
			c0,1.919,0.126,3.808,0.359,5.664C16.101,75.238,9.667,83.66,9.667,93.589c0,12.427,10.073,22.5,22.5,22.5
			c7.342,0,13.861-3.518,17.968-8.959c3.307,1.597,6.835,2.807,10.532,3.557v11.78c-7.945,3.472-13.5,11.396-13.5,20.622
			c0,12.427,10.074,22.5,22.5,22.5c12.426,0,22.5-10.073,22.5-22.5c0-9.226-5.555-17.15-13.5-20.622v-11.78
			c3.697-0.75,7.225-1.96,10.532-3.557c4.106,5.441,10.626,8.959,17.968,8.959c12.427,0,22.5-10.073,22.5-22.5
			C129.667,83.66,123.232,75.238,114.307,72.253z"/>
		<path d="M117.78,72.688c0.257-2.045,0.387-4.097,0.387-6.1c0-4.823-0.711-9.598-2.115-14.19l-1.316,3.873
			c6.846-4.877,10.932-12.796,10.932-21.183c0-14.337-11.664-26-26-26c-8.896,0-17.081,4.479-21.894,11.982l3.804-1.504
			c-3.884-0.981-7.891-1.479-11.91-1.479s-8.026,0.497-11.91,1.479l3.804,1.504C56.748,13.568,48.563,9.089,39.667,9.089
			c-14.336,0-26,11.663-26,26c0,8.387,4.086,16.306,10.932,21.183l-1.316-3.873c-1.404,4.593-2.115,9.367-2.115,14.19
			c0,2.003,0.13,4.055,0.387,6.1l2.362-3.755C13.299,72.485,6.167,82.393,6.167,93.589c0,14.337,11.664,26,26,26
			c8.23,0,15.797-3.772,20.762-10.351l-4.316,1.044c3.628,1.751,7.45,3.041,11.358,3.834l-2.804-3.43v11.78l2.099-3.207
			c-9.476,4.141-15.599,13.494-15.599,23.829c0,14.337,11.664,26,26,26c14.336,0,26-11.663,26-26
			c0-10.335-6.123-19.688-15.599-23.829l2.099,3.207v-11.78l-2.805,3.43c3.909-0.793,7.73-2.083,11.358-3.834l-4.315-1.044
			c4.965,6.578,12.531,10.351,20.762,10.351c14.336,0,26-11.663,26-26c0-11.196-7.133-21.104-17.749-24.655L117.78,72.688z
			 M126.167,93.589c0,10.477-8.523,19-19,19c-6.014,0-11.545-2.758-15.174-7.567l-1.73-2.292l-2.586,1.248
			c-3.103,1.499-6.368,2.602-9.705,3.279l-2.805,0.568v2.861v11.78v2.29l2.099,0.917c6.927,3.026,11.401,9.862,11.401,17.415
			c0,10.477-8.523,19-19,19s-19-8.523-19-19c0-7.553,4.475-14.389,11.401-17.415l2.099-0.917v-2.29v-11.78v-2.861l-2.804-0.568
			c-3.337-0.678-6.603-1.78-9.707-3.279l-2.585-1.248l-1.73,2.292c-3.629,4.81-9.16,7.567-15.174,7.567c-10.477,0-19-8.523-19-19
			c0-8.182,5.212-15.422,12.97-18.017l2.719-0.91l-0.357-2.845c-0.22-1.757-0.332-3.516-0.332-5.229
			c0-4.129,0.609-8.216,1.81-12.146l0.737-2.41L28.66,50.57c-5.005-3.566-7.993-9.354-7.993-15.481c0-10.477,8.523-19,19-19
			c6.5,0,12.482,3.275,16.001,8.762l1.361,2.121l2.443-0.617c3.323-0.84,6.753-1.266,10.195-1.266c3.441,0,6.872,0.426,10.195,1.266
			l2.443,0.617l1.36-2.121c3.519-5.486,9.501-8.762,16.001-8.762c10.477,0,19,8.523,19,19c0,6.128-2.988,11.915-7.993,15.481
			l-2.054,1.463l0.737,2.41c1.2,3.93,1.81,8.017,1.81,12.146c0,1.713-0.111,3.472-0.332,5.229l-0.357,2.845l2.72,0.91
			C120.955,78.167,126.167,85.407,126.167,93.589z"/>
	</g>
	<g>
		<g>
			<circle fill="#00A3B4" cx="99.667" cy="35.089" r="22.5"/>
			<path d="M99.667,56.089c-11.58,0-21-9.421-21-21s9.42-21,21-21s21,9.421,21,21S111.247,56.089,99.667,56.089z M123.667,35.089
				c0-13.233-10.766-24-24-24s-24,10.767-24,24s10.766,24,24,24S123.667,48.322,123.667,35.089z"/>
		</g>
		<g>
			<circle fill="#00A3B4" cx="39.667" cy="35.089" r="22.5"/>
			<path d="M39.667,59.089c13.234,0,24-10.767,24-24s-10.766-24-24-24s-24,10.767-24,24S26.433,59.089,39.667,59.089z
				 M18.667,35.089c0-11.579,9.42-21,21-21s21,9.421,21,21s-9.42,21-21,21S18.667,46.668,18.667,35.089z"/>
		</g>
	</g>
	<g>
		<g>
			<circle fill="#00A3B4" cx="107.167" cy="93.589" r="22.5"/>
			<path d="M107.167,114.589c-11.58,0-21-9.421-21-21s9.42-21,21-21s21,9.421,21,21S118.747,114.589,107.167,114.589z
				 M131.167,93.589c0-13.233-10.766-24-24-24s-24,10.767-24,24s10.766,24,24,24S131.167,106.822,131.167,93.589z"/>
		</g>
		<g>
			<circle fill="#00A3B4" cx="32.167" cy="93.589" r="22.5"/>
			<path d="M32.167,117.589c13.234,0,24-10.767,24-24s-10.766-24-24-24s-24,10.767-24,24S18.933,117.589,32.167,117.589z
				 M11.167,93.589c0-11.579,9.42-21,21-21s21,9.421,21,21s-9.42,21-21,21S11.167,105.168,11.167,93.589z"/>
		</g>
	</g>
	<g>
		<path fill="#F7941E" d="M114.667,66.589c0-24.854-20.147-45-45-45s-45,20.146-45,45c0,21.771,15.46,39.929,36,44.098v11.78
			c-7.945,3.472-13.5,11.396-13.5,20.622c0,12.427,10.074,22.5,22.5,22.5c12.426,0,22.5-10.073,22.5-22.5
			c0-9.226-5.555-17.15-13.5-20.622v-11.78C99.206,106.518,114.667,88.36,114.667,66.589z"/>
		<path d="M116.167,66.589c0-25.641-20.859-46.5-46.5-46.5c-25.64,0-46.5,20.859-46.5,46.5c0,22.028,15.646,41.192,37.202,45.567
			l-1.202-1.47v11.78l0.899-1.374c-8.748,3.821-14.399,12.456-14.399,21.996c0,13.233,10.766,24,24,24c13.234,0,24-10.767,24-24
			c0-9.54-5.652-18.175-14.399-21.996l0.899,1.374v-11.78l-1.201,1.47C100.521,107.781,116.167,88.617,116.167,66.589z
			 M77.167,110.687v11.78v0.981l0.899,0.394c7.655,3.344,12.601,10.899,12.601,19.247c0,11.579-9.42,21-21,21
			c-11.58,0-21-9.421-21-21c0-8.348,4.946-15.903,12.601-19.247l0.899-0.394v-0.981v-11.78v-1.227l-1.202-0.243
			c-20.164-4.093-34.798-22.021-34.798-42.628c0-23.986,19.514-43.5,43.5-43.5c23.986,0,43.5,19.514,43.5,43.5
			c0,20.607-14.635,38.535-34.799,42.628l-1.201,0.243V110.687z"/>
	</g>
	<g>
		<g>
			<g>
				<path fill="#00A3B4" d="M45.067,49.34l-3.79-3.791c-3.68,4.816-6.156,10.596-6.996,16.894h5.34
					C40.386,57.603,42.299,53.142,45.067,49.34z M51.801,42.605c3.801-2.769,8.264-4.682,13.104-5.446v-5.34
					c-6.299,0.84-12.078,3.316-16.894,6.996L51.801,42.605z M34.282,71.966c0.84,6.298,3.317,12.077,6.996,16.894l3.79-3.789
					c-2.769-3.802-4.682-8.265-5.446-13.104H34.282z M74.428,37.159c4.84,0.765,9.303,2.678,13.104,5.446l3.79-3.79
					c-4.815-3.68-10.595-6.156-16.894-6.996V37.159z M94.265,85.07l3.79,3.789c3.68-4.816,6.156-10.596,6.996-16.894h-5.34
					C98.947,76.806,97.034,81.269,94.265,85.07z M105.051,62.442c-0.84-6.298-3.316-12.077-6.996-16.894l-3.79,3.789
					c2.769,3.803,4.682,8.265,5.446,13.104H105.051z M48.011,95.593c4.816,3.68,10.595,6.156,16.894,6.996v-5.34
					c-4.841-0.765-9.303-2.678-13.104-5.446L48.011,95.593z M74.428,97.249v5.34c6.299-0.84,12.078-3.316,16.893-6.996l-3.789-3.79
					C83.73,94.571,79.268,96.484,74.428,97.249z"/>
			</g>
		</g>
		<g>
			<g>
				<path d="M45.421,48.986l-3.79-3.791l-0.404-0.404l-0.347,0.454c-3.812,4.99-6.265,10.914-7.094,17.131l-0.076,0.566h0.571h5.34
					h0.427l0.066-0.422c0.73-4.621,2.582-9.077,5.356-12.887l0.251-0.345L45.421,48.986z M39.622,61.942h-5.34l0.496,0.566
					c0.806-6.045,3.191-11.805,6.898-16.656l-0.751,0.05l3.79,3.791l-0.051-0.647c-2.867,3.937-4.781,8.542-5.535,13.318
					L39.622,61.942z"/>
				<path d="M52.095,43.01c3.809-2.774,8.266-4.627,12.888-5.356l0.422-0.067v-0.427v-5.34v-0.571l-0.566,0.075
					c-6.218,0.829-12.143,3.283-17.132,7.095l-0.454,0.347l0.404,0.404l3.79,3.79l0.302,0.303L52.095,43.01z M48.315,39.213
					c4.851-3.707,10.611-6.092,16.656-6.897l-0.566-0.496v5.34l0.422-0.494c-4.778,0.755-9.384,2.669-13.321,5.536l0.648,0.051
					l-3.79-3.79L48.315,39.213z"/>
				<path d="M33.786,72.032c0.829,6.217,3.282,12.141,7.094,17.131l0.347,0.454l0.404-0.404l3.79-3.789l0.302-0.302l-0.251-0.346
					c-2.774-3.81-4.626-8.266-5.356-12.889l-0.066-0.422h-0.427h-5.34H33.71L33.786,72.032z M39.128,72.044
					c0.755,4.778,2.669,9.385,5.536,13.32l0.051-0.647l-3.79,3.789l0.751,0.05c-3.707-4.852-6.092-10.611-6.898-16.656l-0.496,0.566
					h5.34L39.128,72.044z"/>
				<path d="M74.35,37.653c4.621,0.729,9.078,2.582,12.888,5.356l0.346,0.252l0.302-0.303l3.79-3.79l0.403-0.404l-0.453-0.347
					c-4.989-3.812-10.914-6.266-17.132-7.095l-0.565-0.075v0.571v5.34v0.427L74.35,37.653z M74.362,32.315
					c6.045,0.806,11.805,3.19,16.656,6.897l-0.05-0.751l-3.79,3.79l0.648-0.051c-3.938-2.867-8.543-4.781-13.32-5.536l0.422,0.494
					v-5.34L74.362,32.315z"/>
				<path d="M93.912,85.424l3.79,3.789l0.404,0.404l0.347-0.454c3.812-4.99,6.265-10.914,7.095-17.131l0.075-0.566h-0.571h-5.34
					h-0.428l-0.066,0.422c-0.73,4.623-2.582,9.079-5.356,12.889l-0.251,0.346L93.912,85.424z M99.711,72.466h5.34l-0.496-0.566
					c-0.806,6.045-3.191,11.805-6.897,16.656l0.751-0.05l-3.79-3.789l0.051,0.647c2.866-3.936,4.78-8.542,5.535-13.32L99.711,72.466
					z"/>
				<path d="M105.547,62.376c-0.83-6.217-3.283-12.141-7.095-17.131l-0.347-0.454l-0.404,0.404l-3.79,3.789l-0.302,0.302
					l0.251,0.346c2.774,3.811,4.626,8.267,5.356,12.889l0.066,0.422h0.428h5.34h0.571L105.547,62.376z M100.205,62.364
					c-0.754-4.777-2.668-9.384-5.535-13.32l-0.051,0.647l3.79-3.789l-0.751-0.05c3.706,4.852,6.092,10.611,6.897,16.656l0.496-0.566
					h-5.34L100.205,62.364z"/>
				<path d="M47.708,95.99c4.99,3.812,10.914,6.266,17.132,7.095l0.566,0.075v-0.571v-5.34v-0.427l-0.422-0.067
					c-4.622-0.729-9.079-2.582-12.888-5.356l-0.346-0.252l-0.302,0.303l-3.79,3.79l-0.404,0.404L47.708,95.99z M51.506,92.207
					c3.937,2.867,8.543,4.781,13.321,5.536l-0.422-0.494v5.34l0.566-0.496c-6.045-0.806-11.805-3.19-16.656-6.897l0.05,0.751
					l3.79-3.79L51.506,92.207z"/>
				<path d="M73.928,97.249v5.34v0.571l0.565-0.075c6.219-0.829,12.143-3.283,17.132-7.095l0.453-0.347l-0.404-0.404l-3.789-3.79
					l-0.303-0.303l-0.346,0.252c-3.809,2.774-8.266,4.627-12.887,5.356l-0.422,0.067V97.249z M87.178,92.156l3.789,3.79l0.051-0.751
					c-4.852,3.707-10.61,6.092-16.656,6.897l0.566,0.496v-5.34l-0.422,0.494c4.776-0.755,9.383-2.669,13.32-5.536L87.178,92.156z"/>
			</g>
		</g>
	</g>
</g>
</svg>
