<?xml version="1.0" encoding="utf-8"?>
<!-- Generator: Adobe Illustrator 16.0.0, SVG Export Plug-In . SVG Version: 6.00 Build 0)  -->
<!DOCTYPE svg PUBLIC "-//W3C//DTD SVG 1.1//EN" "http://www.w3.org/Graphics/SVG/1.1/DTD/svg11.dtd">
<svg version="1.1" id="Layer_1" xmlns="http://www.w3.org/2000/svg" xmlns:xlink="http://www.w3.org/1999/xlink" x="0px" y="0px"
	 width="198.333px" height="264.167px" viewBox="0 0 198.333 264.167" enable-background="new 0 0 198.333 264.167"
	 xml:space="preserve">
<g>
	<g>
		<path d="M139.29,171.276c0.395-0.422,0.792-0.857,1.178-1.298c0.243-0.276,0.459-0.524,0.656-0.758
			c0.279-0.329,0.526-0.624,0.782-0.937c0.24-0.299,0.47-0.596,0.693-0.883c0.395-0.509,0.764-1.003,1.118-1.494
			c0.163-0.225,0.353-0.488,0.54-0.758c0.251-0.361,0.481-0.689,0.709-1.033c0.297-0.449,0.593-0.911,0.907-1.416
			c3.374-5.446,5.733-11.363,7.013-17.592c-0.063,0.307-0.184,0.6-0.352,0.863l38.351-60.18c0.623-0.979,0.511-2.254-0.272-3.108
			c-0.784-0.854-2.044-1.076-3.072-0.54L156.632,98.27c0.926-0.483,2.053-0.356,2.848,0.321c0.794,0.677,1.098,1.769,0.768,2.759
			l19.486-58.456c0.35-1.051-0.016-2.208-0.904-2.868c-0.891-0.66-2.104-0.673-3.008-0.033L143.57,62.838
			c0.73-0.516,1.676-0.616,2.496-0.262c0.821,0.354,1.396,1.11,1.522,1.995l-8.064-57.112c-0.171-1.219-1.187-2.143-2.417-2.201
			c-1.23-0.057-2.327,0.769-2.611,1.967l-17.47,73.56c0.172-0.727,0.652-1.342,1.315-1.685c0.665-0.343,1.443-0.378,2.137-0.099
			c-6.265-2.531-13.45-3.869-20.781-3.869s-14.515,1.337-20.779,3.869c0.692-0.28,1.473-0.244,2.135,0.099
			c0.664,0.343,1.146,0.958,1.317,1.685L64.9,7.225c-0.286-1.198-1.381-2.024-2.611-1.967c-1.231,0.058-2.246,0.981-2.418,2.201
			l-8.063,57.112c0.124-0.885,0.701-1.641,1.522-1.995c0.82-0.354,1.766-0.254,2.494,0.262l-32.25-22.845
			c-0.904-0.64-2.118-0.627-3.008,0.033c-0.89,0.66-1.255,1.816-0.903,2.868l19.484,58.456c-0.33-0.99-0.026-2.082,0.769-2.759
			s1.922-0.805,2.848-0.321L11.855,82.144c-1.028-0.537-2.29-0.315-3.073,0.54c-0.784,0.854-0.896,2.129-0.271,3.108l38.349,60.18
			c-0.168-0.264-0.287-0.557-0.35-0.862c1.276,6.212,3.625,12.113,6.981,17.542c0.287,0.468,0.595,0.947,0.938,1.464
			c0.235,0.356,0.469,0.691,0.708,1.034c-0.005-0.01,0.521,0.732,0.521,0.732c0.365,0.505,0.729,0.99,1.104,1.473
			c0.246,0.318,0.481,0.625,0.73,0.932c0.226,0.279,0.473,0.575,0.776,0.934c0.197,0.231,0.416,0.484,0.669,0.77
			c0.374,0.427,0.765,0.855,1.154,1.271c0.258,0.274,0.55,0.586,0.855,0.895c0.235,0.243,0.493,0.5,0.802,0.802
			c0.247,0.241,0.512,0.492,0.858,0.817c0.406,0.381,0.783,0.723,1.148,1.045c0.354,0.314,0.684,0.6,0.999,0.867
			c0.304,0.254,0.568,0.472,0.814,0.67c0.335,0.271,0.7,0.561,1.147,0.903c0.346,0.265,0.687,0.52,1.02,0.761
			c0.396,0.29,0.794,0.574,1.176,0.837c0.003,0.003,0.781,0.53,0.781,0.53c0.399,0.265,0.814,0.531,1.272,0.818
			c-0.747-0.469-1.202-1.289-1.202-2.17v21.406c0-0.868,0.442-1.679,1.172-2.15c-1.267,0.818-2.312,1.715-3.106,2.662
			c0.487-0.58,1.206-0.916,1.964-0.916h-1.444c-1.415,0-2.562,1.146-2.562,2.562v1.512v34.479v1.513
			c0,1.415,1.147,2.562,2.562,2.562h1.512c-1.231,0-2.221-0.875-2.451-2.084c1.486,7.828,17.779,11.395,32.288,11.395
			s30.803-3.566,32.288-11.395c-0.229,1.209-1.286,2.084-2.516,2.084c0.066,0,1.579,0,1.579,0c1.414,0,2.562-1.146,2.562-2.562
			v-1.513v-34.479V201.6c0-1.416-1.147-2.562-2.562-2.562h-1.445c0.758,0,1.476,0.336,1.962,0.916
			c-0.795-0.948-1.84-1.844-3.105-2.662c0.731,0.472,1.172,1.282,1.172,2.151v-21.407c0,0.884-0.456,1.705-1.207,2.174
			c0.443-0.276,0.872-0.553,1.279-0.823c0.229-0.151,0.469-0.315,0.779-0.529c0.385-0.265,0.782-0.548,1.183-0.841
			c0.346-0.252,0.689-0.509,1.016-0.76c0.424-0.324,0.798-0.618,1.145-0.899c0.257-0.206,0.523-0.427,0.815-0.673
			c0.296-0.248,0.604-0.515,0.996-0.861c0.391-0.346,0.778-0.7,1.158-1.055c0.232-0.218,0.539-0.507,0.85-0.812
			c0.316-0.31,0.574-0.565,0.81-0.805C138.757,171.842,139.048,171.534,139.29,171.276z M134.799,168.561
			c-0.21,0.214-0.443,0.447-0.737,0.734c-0.277,0.271-0.557,0.533-0.77,0.732c-0.344,0.322-0.696,0.645-1.05,0.957
			c-0.357,0.316-0.638,0.559-0.899,0.779c-0.266,0.224-0.506,0.421-0.737,0.607c-0.314,0.255-0.655,0.522-1.043,0.82
			c-0.294,0.226-0.604,0.457-0.919,0.686c-0.365,0.268-0.726,0.523-1.072,0.764c-0.282,0.195-0.5,0.343-0.702,0.478
			c-0.367,0.244-0.757,0.493-1.157,0.743c-0.748,0.469-1.205,1.289-1.205,2.174v21.407c0,0.87,0.441,1.679,1.171,2.151
			c0.835,0.539,1.494,1.096,1.961,1.651c0.487,0.581,1.206,0.915,1.964,0.915h1.445c-1.416,0-2.562-1.146-2.562-2.561v1.512v34.479
			v1.513c0-1.415,1.146-2.562,2.562-2.562h-1.513c-1.23,0-2.354,0.875-2.583,2.084c-0.493,2.594-10.021,7.226-27.256,7.226
			c-17.232,0-26.762-4.632-27.255-7.226c-0.229-1.209-1.285-2.084-2.516-2.084c-0.066,0-1.578,0-1.578,0
			c1.414,0,2.562,1.146,2.562,2.562v-1.513v-34.479V201.6c0,1.414-1.147,2.561-2.562,2.561h1.444c0.758,0,1.476-0.335,1.963-0.916
			c0.465-0.555,1.126-1.111,1.962-1.65c0.729-0.473,1.17-1.282,1.17-2.152v-21.406c0-0.882-0.454-1.702-1.201-2.17
			c-0.421-0.266-0.801-0.51-1.16-0.748c0.002,0.002-0.707-0.48-0.707-0.48c-0.34-0.233-0.698-0.49-1.066-0.758
			c-0.304-0.221-0.611-0.451-0.919-0.687c-0.407-0.312-0.738-0.573-1.04-0.818c-0.229-0.184-0.462-0.377-0.741-0.61
			c-0.279-0.235-0.577-0.492-0.904-0.784c-0.333-0.293-0.67-0.601-1.041-0.946c-0.317-0.299-0.558-0.526-0.776-0.741
			c-0.282-0.274-0.515-0.507-0.729-0.726c-0.267-0.271-0.536-0.559-0.775-0.813c-0.353-0.375-0.704-0.762-1.046-1.151
			c-0.23-0.261-0.427-0.488-0.604-0.697c-0.28-0.331-0.502-0.599-0.703-0.846c-0.213-0.262-0.423-0.533-0.646-0.82
			c-0.357-0.461-0.687-0.901-0.997-1.33c-0.01-0.014-0.488-0.688-0.488-0.688c-0.226-0.323-0.439-0.631-0.643-0.938
			c-0.312-0.47-0.59-0.903-0.851-1.323c-3.04-4.919-5.167-10.262-6.32-15.881c-0.063-0.306-0.181-0.598-0.35-0.861L12.831,83.038
			c0.622,0.978,0.512,2.253-0.272,3.107c-0.784,0.855-2.044,1.077-3.073,0.54l30.907,16.126c0.926,0.483,2.052,0.356,2.847-0.322
			c0.795-0.677,1.099-1.769,0.769-2.76L24.522,41.275c0.352,1.05-0.014,2.207-0.904,2.867c-0.889,0.66-2.103,0.673-3.006,0.033
			l32.251,22.844c0.729,0.517,1.675,0.616,2.495,0.262c0.819-0.354,1.397-1.11,1.522-1.994l8.062-57.112
			c-0.171,1.22-1.188,2.143-2.416,2.2c-1.231,0.058-2.327-0.768-2.612-1.966l17.47,73.56c0.173,0.727,0.654,1.341,1.316,1.684
			c0.664,0.343,1.444,0.38,2.137,0.1c5.659-2.287,12.18-3.496,18.859-3.496c6.682,0,13.201,1.209,18.861,3.496
			c0.692,0.28,1.473,0.244,2.135-0.1c0.664-0.342,1.145-0.957,1.318-1.684l17.469-73.56c-0.284,1.198-1.38,2.024-2.611,1.966
			c-1.229-0.057-2.245-0.98-2.418-2.2l8.064,57.112c0.125,0.884,0.701,1.64,1.521,1.994s1.767,0.254,2.496-0.262l32.251-22.844
			c-0.903,0.64-2.116,0.627-3.007-0.033c-0.89-0.66-1.255-1.817-0.904-2.867L155.387,99.73c-0.329,0.991-0.026,2.083,0.769,2.76
			c0.795,0.678,1.922,0.805,2.848,0.322l30.906-16.126c-1.028,0.537-2.289,0.315-3.071-0.54c-0.785-0.854-0.897-2.129-0.273-3.107
			l-38.35,60.179c-0.168,0.264-0.286,0.556-0.349,0.861c-1.157,5.635-3.293,10.991-6.346,15.92c-0.286,0.459-0.556,0.88-0.824,1.283
			c-0.196,0.297-0.399,0.588-0.644,0.939c-0.167,0.24-0.341,0.481-0.488,0.686c-0.32,0.443-0.655,0.892-0.996,1.331
			c-0.237,0.304-0.44,0.566-0.647,0.823c-0.22,0.271-0.45,0.544-0.705,0.847c-0.175,0.206-0.371,0.432-0.595,0.687
			c-0.352,0.398-0.711,0.794-1.068,1.176C135.326,168.012,135.062,168.293,134.799,168.561z"/>
	</g>
	<g>
		<g>
			<ellipse fill="#6D6E71" cx="99.327" cy="103.229" rx="38.299" ry="25.532"/>
			<path d="M136.528,103.229c0,13.472-16.689,24.434-37.201,24.434c-20.513,0-37.2-10.961-37.2-24.434
				c0-13.474,16.688-24.436,37.2-24.436C119.838,78.793,136.528,89.754,136.528,103.229z M99.327,76.597
				c-21.723,0-39.397,11.947-39.397,26.631c0,14.684,17.675,26.629,39.397,26.629c21.724,0,39.396-11.946,39.396-26.629
				C138.723,88.544,121.05,76.597,99.327,76.597z"/>
		</g>
		<g>
			<g>
				<polygon fill="#BCBEC0" points="53.972,152.949 10.298,84.415 41.207,100.541 21.721,42.084 53.972,64.929 62.036,7.817 
					87.568,115.322 				"/>
				<path d="M54.898,152.359L11.224,83.825l-1.433,1.563l30.906,16.125l2.408,1.256l-0.858-2.577L22.762,41.738l-1.675,1.243
					l32.251,22.844l1.47,1.042l0.252-1.784l8.062-57.111l-2.154,0.101L86.5,115.576l0.25-0.985l-33.597,37.627L54.898,152.359z
					 M88.635,115.068L63.103,7.564l-2.154,0.1l-8.063,57.111l1.722-0.743L22.356,41.188L19.62,39.25l1.061,3.182l19.484,58.456
					l1.549-1.32L10.806,83.441l-3.64-1.899l2.205,3.463l43.676,68.535l0.778,1.222l0.966-1.081l33.595-37.627l0.383-0.428
					L88.635,115.068z"/>
			</g>
			<g>
				<polygon fill="#BCBEC0" points="144.68,152.949 188.353,84.415 157.447,100.541 176.931,42.084 144.68,64.929 136.617,7.817 
					111.085,115.322 				"/>
				<path d="M145.607,153.54l43.673-68.535l2.207-3.463l-3.641,1.899l-30.907,16.125l1.549,1.32l19.486-58.456l1.061-3.182
					l-2.737,1.938l-32.251,22.844l1.722,0.743l-8.064-57.111l-2.154-0.1l-25.533,107.504l-0.132,0.557l0.382,0.428l33.595,37.627
					l0.967,1.081L145.607,153.54z M112.154,115.576l25.53-107.504l-2.154-0.101l8.063,57.111l0.252,1.784l1.47-1.042l32.252-22.844
					l-1.677-1.243l-19.484,58.455l-0.859,2.577l2.407-1.256l30.908-16.125l-1.434-1.563l-43.674,68.534l1.746-0.142l-33.597-37.627
					L112.154,115.576z"/>
			</g>
		</g>
		<g>
			<path fill="#6D6E71" d="M147.706,134.136V118.01h-6.81c-7-7.118-22.973-12.095-41.569-12.095
				c-18.596,0-34.569,4.977-41.569,12.095H50.95v16.126H47.59c0,28.573,23.162,51.735,51.736,51.735
				c28.572,0,51.735-23.162,51.735-51.735H147.706z"/>
			<path d="M148.802,134.136V118.01v-1.098h-1.097h-6.81l0.782,0.328c-7.42-7.546-24.045-12.422-42.352-12.422
				c-18.308,0-34.932,4.876-42.352,12.422l0.782-0.328H50.95h-1.099v1.098v16.126l1.099-1.099H47.59h-1.099v1.099
				c0,29.132,23.701,52.833,52.835,52.833c29.133,0,52.834-23.701,52.834-52.833v-1.099h-1.099h-3.356L148.802,134.136z
				 M149.965,134.136c0,27.921-22.716,50.637-50.639,50.637s-50.638-22.716-50.638-50.637l-1.099,1.098h3.359h1.099v-1.098V118.01
				l-1.099,1.098h6.808h0.46l0.323-0.328c7.028-7.147,23.037-11.767,40.786-11.767c17.747,0,33.758,4.619,40.787,11.767l0.322,0.328
				h0.46h6.81l-1.099-1.098v16.126v1.098h1.099h3.356L149.965,134.136z"/>
		</g>
		<g>
			<path fill="#BCBEC0" d="M99.327,143.542c-17.177,0-32.732,6.785-44.029,17.761c9.117,14.742,25.423,24.568,44.029,24.568
				s34.911-9.826,44.027-24.568C132.058,150.328,116.504,143.542,99.327,143.542z"/>
			<path d="M99.327,143.176c-16.701,0-32.427,6.345-44.283,17.865l-0.21,0.205l0.154,0.25c9.579,15.491,26.155,24.741,44.339,24.741
				s34.758-9.25,44.339-24.741l0.155-0.25l-0.211-0.205C131.752,149.521,116.027,143.176,99.327,143.176z M143.043,161.112
				c-9.446,15.274-25.788,24.394-43.717,24.394c-17.928,0-34.271-9.119-43.718-24.394l-0.055,0.455
				c11.719-11.389,27.264-17.658,43.772-17.658s32.055,6.27,43.773,17.658L143.043,161.112z"/>
		</g>
		<g>
			<g>
				<g>
					<path fill="#6D6E71" d="M124.607,162.797c-2.503-4.486-12.867-7.852-25.28-7.852c-12.411,0-22.777,3.365-25.281,7.852h-0.578
						v74.793h51.719v-74.793H124.607z"/>
				</g>
				<g>
					<path fill="#BCBEC0" d="M108.608,247.75c3.534-0.524,6.694-1.336,9.283-2.363v-87.405c-2.589-1.029-5.744-1.845-9.283-2.368
						V247.75z"/>
				</g>
				<g>
					<path d="M125.926,162.06c-2.833-5.078-13.771-8.626-26.6-8.626s-23.768,3.548-26.601,8.626l1.319-0.775h-0.578h-1.514v1.513
						v74.793v1.513h1.514h51.719h1.512v-1.513v-74.793v-1.513h-1.512h-0.579L125.926,162.06z M123.675,162.797v74.793l1.511-1.511
						H73.467l1.512,1.511v-74.793l-1.512,1.512h0.578h0.887l0.434-0.775c1.914-3.43,10.964-7.075,23.961-7.075
						c13,0,22.047,3.646,23.96,7.075l0.433,0.775h0.888h0.579L123.675,162.797z"/>
				</g>
			</g>
			<g>
				<g>
					<ellipse fill="#BCBEC0" cx="99.327" cy="218.309" rx="25.859" ry="9.946"/>
				</g>
				<g>
					<path d="M123.675,218.309c0,3.99-10.001,8.436-24.349,8.436c-14.349,0-24.348-4.445-24.348-8.436
						c0-3.989,9.999-8.434,24.348-8.434C113.674,209.875,123.675,214.32,123.675,218.309z M99.327,206.852
						c-13.27,0-27.373,4.016-27.373,11.457c0,7.443,14.104,11.459,27.373,11.459c13.269,0,27.371-4.016,27.371-11.459
						C126.698,210.868,112.595,206.852,99.327,206.852z"/>
				</g>
			</g>
			<g>
				<path fill="#6D6E71" d="M128.496,203.112c-2.888-4.486-14.848-7.852-29.169-7.852c-14.322,0-26.284,3.365-29.169,7.852h-0.67
					v34.479h59.677v-34.479H128.496z"/>
				<path fill="#6D6E71" d="M128.803,202.913c-3.039-4.721-15.159-8.018-29.477-8.018c-14.318,0-26.44,3.297-29.477,8.018
					l0.308-0.167h-0.67l-0.366,0.366v34.479l0.366,0.366h59.677l0.366-0.366v-34.479l-0.366-0.366h-0.669L128.803,202.913z
					 M128.798,203.112v34.479l0.366-0.365H69.488l0.366,0.365v-34.479l-0.366,0.366h0.67l0.309-0.169
					c2.862-4.451,15-7.682,28.86-7.682c13.858,0,25.996,3.23,28.86,7.682l0.309,0.169h0.669L128.798,203.112z"/>
			</g>
			<g>
				<path fill="#BCBEC0" d="M114.231,229.852v-33.26c-2.831-0.546-5.959-0.938-9.282-1.15V228.7
					C108.272,228.911,111.396,229.305,114.231,229.852z"/>
			</g>
			<g>
				<path d="M127.652,203.112v34.479l1.513-1.511H69.488L71,237.59v-34.479l-1.513,1.512h0.67h0.824l0.446-0.694
					c2.232-3.47,12.77-7.155,27.898-7.155c15.127,0,25.665,3.686,27.896,7.155l0.448,0.694h0.824h0.669L127.652,203.112z
					 M129.766,202.293c-3.237-5.03-15.754-8.544-30.439-8.544c-14.688,0-27.205,3.514-30.44,8.544l1.271-0.693h-0.67h-1.512v1.512
					v34.479v1.513h1.512h59.677h1.513v-1.513v-34.479V201.6h-1.513h-0.669L129.766,202.293z"/>
				<path d="M127.286,203.112v34.479c0,0.148,0.09,0.283,0.227,0.339c0.137,0.057,0.296,0.024,0.399-0.079l1.512-1.512
					c0.105-0.105,0.136-0.262,0.08-0.399c-0.058-0.136-0.191-0.226-0.339-0.226H69.488c-0.148,0-0.281,0.09-0.338,0.226
					c-0.057,0.138-0.024,0.294,0.079,0.399l1.513,1.512c0.104,0.104,0.264,0.136,0.399,0.079c0.135-0.056,0.226-0.19,0.226-0.339
					v-34.479c0-0.148-0.091-0.281-0.226-0.338c-0.136-0.057-0.295-0.025-0.399,0.079l-1.513,1.512
					c-0.104,0.104-0.136,0.262-0.079,0.398c0.057,0.136,0.189,0.226,0.338,0.226h0.67h0.824c0.125,0,0.24-0.062,0.31-0.168
					l0.446-0.694c2.178-3.388,12.59-6.987,27.589-6.987s25.409,3.6,27.59,6.987l0.446,0.694c0.067,0.105,0.183,0.168,0.309,0.168
					h0.824h0.669c0.147,0,0.281-0.088,0.339-0.226c0.056-0.137,0.025-0.294-0.08-0.398l-1.512-1.512
					c-0.104-0.104-0.263-0.137-0.399-0.079C127.375,202.831,127.286,202.963,127.286,203.112z M129.165,204.258h-0.669h-0.824
					c0.123,0,0.24,0.062,0.307,0.167l-0.446-0.694c-2.283-3.551-12.946-7.324-28.205-7.324c-15.26,0-25.921,3.773-28.205,7.324
					l-0.447,0.694c0.067-0.104,0.185-0.167,0.308-0.167h-0.824h-0.67c0.147,0,0.282,0.088,0.339,0.225
					c0.056,0.137,0.025,0.294-0.08,0.399l1.513-1.513c-0.105,0.105-0.263,0.137-0.399,0.08c-0.136-0.057-0.226-0.19-0.226-0.338
					v34.479c0-0.146,0.09-0.28,0.226-0.338c0.137-0.057,0.294-0.025,0.399,0.08l-1.513-1.512c0.105,0.104,0.136,0.262,0.08,0.398
					c-0.057,0.137-0.191,0.226-0.339,0.226h59.677c-0.147,0-0.281-0.089-0.339-0.226c-0.056-0.137-0.023-0.295,0.079-0.398
					l-1.512,1.512c0.104-0.105,0.264-0.137,0.399-0.08c0.138,0.057,0.227,0.191,0.227,0.338v-34.479
					c0,0.147-0.089,0.281-0.227,0.338c-0.136,0.057-0.295,0.025-0.399-0.08l1.512,1.513c-0.103-0.105-0.135-0.263-0.079-0.399
					C128.883,204.346,129.017,204.258,129.165,204.258z"/>
				<path d="M130.076,202.095c-3.304-5.13-15.947-8.712-30.749-8.712c-14.804,0-27.448,3.582-30.749,8.712
					c-0.09,0.142-0.073,0.325,0.041,0.448c0.114,0.122,0.296,0.151,0.442,0.071l1.271-0.694c0.148-0.08,0.222-0.25,0.18-0.412
					c-0.04-0.162-0.188-0.274-0.354-0.274h-0.67h-1.512c-0.202,0-0.367,0.163-0.367,0.366v1.512v34.479v1.513
					c0,0.202,0.165,0.366,0.367,0.366h1.512h59.677h1.513c0.201,0,0.365-0.164,0.365-0.366v-1.513v-34.479V201.6
					c0-0.203-0.164-0.366-0.365-0.366h-1.513h-0.669c-0.168,0-0.313,0.112-0.354,0.274c-0.042,0.162,0.031,0.332,0.178,0.412
					l1.273,0.694c0.146,0.08,0.329,0.051,0.443-0.072C130.149,202.42,130.165,202.236,130.076,202.095z M128.496,201.965h0.669
					h1.513c-0.202,0-0.366-0.164-0.366-0.365v1.512v34.479v1.513c0-0.202,0.164-0.366,0.366-0.366h-1.513H69.488h-1.512
					c0.203,0,0.366,0.164,0.366,0.366v-1.513v-34.479V201.6c0,0.201-0.163,0.365-0.366,0.365h1.512h0.67
					c-0.167,0-0.312-0.113-0.355-0.275c-0.04-0.162,0.033-0.331,0.18-0.411l-1.27,0.693c0.146-0.079,0.327-0.05,0.441,0.071
					c0.114,0.123,0.131,0.308,0.04,0.448c3.173-4.933,15.563-8.377,30.133-8.377c14.566,0,26.957,3.444,30.132,8.377
					c-0.089-0.141-0.074-0.325,0.04-0.448c0.114-0.121,0.298-0.15,0.443-0.071l-1.271-0.693c0.147,0.08,0.221,0.249,0.18,0.411
					S128.663,201.965,128.496,201.965z"/>
			</g>
			<g>
				<ellipse fill="#6D6E71" cx="99.326" cy="238.466" rx="29.838" ry="9.947"/>
				<path d="M128.066,238.466c0,4.186-11.802,8.849-28.739,8.849c-16.937,0-28.741-4.663-28.741-8.849s11.805-8.849,28.741-8.849
					C116.264,229.618,128.066,234.281,128.066,238.466z M99.327,227.422c-14.997,0-30.938,3.871-30.938,11.044
					c0,7.174,15.94,11.045,30.938,11.045c14.998,0,30.936-3.871,30.936-11.045C130.262,231.293,114.325,227.422,99.327,227.422z"/>
			</g>
			<g>
				<path d="M75.045,238.466c2.396,1.831,10.674,4.907,24.281,4.907c13.605,0,21.886-3.076,24.28-4.907
					c-2.396-1.832-10.676-4.906-24.28-4.906C85.719,233.56,77.441,236.634,75.045,238.466z"/>
			</g>
		</g>
	</g>
</g>
</svg>
