<?xml version="1.0" encoding="utf-8"?>
<!-- Generator: Adobe Illustrator 16.0.0, SVG Export Plug-In . SVG Version: 6.00 Build 0)  -->
<!DOCTYPE svg PUBLIC "-//W3C//DTD SVG 1.1//EN" "http://www.w3.org/Graphics/SVG/1.1/DTD/svg11.dtd">
<svg version="1.1" id="Layer_1" xmlns="http://www.w3.org/2000/svg" xmlns:xlink="http://www.w3.org/1999/xlink" x="0px" y="0px"
	 width="198.333px" height="186.667px" viewBox="0 0 198.333 186.667" enable-background="new 0 0 198.333 186.667"
	 xml:space="preserve">
<g>
	<g>
		<path fill="#FFDB78" d="M49.167,132.957c17.105,9.211,49.921,39.475,49.921,39.475s32.815-30.264,49.921-39.475
			c17.105-9.21,38.158-36.842,38.158-69.736c0,0-22.971,26.777-47.545,27.593c-1.256-21.024-12.508-30.215-27.771-33.128
			c-7.702-20.426-12.137-43.324-12.763-46.669c-0.626,3.345-5.061,26.243-12.763,46.669C71.062,60.599,59.809,69.79,58.554,90.813
			c-24.576-0.814-47.546-27.593-47.546-27.593C11.008,96.115,32.061,123.747,49.167,132.957z M99.008,10.589
			c0,0,0.028,0.154,0.079,0.427c0.051-0.273,0.079-0.427,0.079-0.427H99.008z"/>
		<path d="M46.796,137.359c16.361,8.811,48.578,38.449,48.902,38.748c1.915,1.766,4.865,1.766,6.779,0
			c0.324-0.299,32.55-29.942,48.901-38.748c19.773-10.646,40.788-40.248,40.788-74.139c0-2.092-1.303-3.963-3.265-4.689
			s-4.168-0.154-5.53,1.434c-0.214,0.248-21.865,25.119-43.916,25.851c2.708-0.09,4.995,1.994,5.157,4.699
			c-1.252-20.956-12.257-34.007-31.825-37.741c1.709,0.326,3.127,1.518,3.74,3.147c-7.622-20.216-12.047-43.263-12.525-45.825
			c-0.443-2.366-2.508-4.08-4.915-4.08c-2.407,0-4.472,1.714-4.915,4.08c-0.479,2.561-4.903,25.606-12.527,45.825
			c0.614-1.628,2.031-2.821,3.741-3.147C65.818,56.51,54.814,69.561,53.563,90.516c0.162-2.705,2.448-4.789,5.157-4.699
			c-22.122-0.733-43.701-25.6-43.917-25.851c-1.362-1.588-3.568-2.16-5.531-1.434c-1.962,0.726-3.264,2.597-3.264,4.689
			C6.008,97.111,27.023,126.713,46.796,137.359z M7.213,66.476c0.996,1.162,24.706,28.458,51.175,29.334
			c2.708,0.09,4.995-1.994,5.157-4.699c0.988-16.554,8.524-25.614,23.717-28.515c1.71-0.326,3.127-1.519,3.741-3.147
			c7.761-20.584,12.189-43.191,12.999-47.514c-0.443,2.366-2.508,4.08-4.915,4.08c-2.407,0-4.472-1.714-4.915-4.08
			c0.809,4.323,5.238,26.932,12.998,47.513c0.615,1.629,2.031,2.821,3.742,3.147c15.192,2.9,22.729,11.96,23.718,28.516
			c0.162,2.705,2.449,4.789,5.157,4.699c26.467-0.879,50.178-28.173,51.174-29.334c-1.362,1.588-3.568,2.16-5.53,1.434
			c-1.962-0.726-3.265-2.597-3.265-4.689c0,31.869-20.776,57.391-35.528,65.334c-17.461,9.402-49.582,38.947-50.94,40.201
			c1.915-1.766,4.865-1.766,6.779,0c-1.359-1.254-33.48-30.799-50.94-40.201c-14.753-7.943-35.529-33.465-35.529-65.334
			c0,2.092-1.302,3.963-3.265,4.689C10.782,68.636,8.575,68.064,7.213,66.476z"/>
		<path d="M94.088,11.479l0.084,0.458c0.439,2.37,2.504,4.09,4.915,4.09c2.411,0,4.476-1.72,4.915-4.09l0.084-0.458
			c0.271-1.46-0.125-2.956-1.074-4.098c-0.95-1.142-2.36-1.792-3.846-1.792h-0.158c-1.485,0-2.896,0.65-3.846,1.792
			C94.213,8.523,93.818,10.019,94.088,11.479z M94.247,9.699C94.247,9.698,94.247,9.698,94.247,9.699l-0.074,0.396
			c0.439-2.37,2.504-4.089,4.915-4.089s4.476,1.719,4.915,4.089l-0.074-0.396c0.271,1.46-0.124,2.956-1.074,4.098
			c-0.949,1.142-2.36,1.792-3.846,1.792h0.158c-1.482,0-2.887-0.657-3.837-1.794C94.379,12.657,93.982,11.157,94.247,9.699z"/>
	</g>
	<g>
		<path fill="#ED1C24" d="M99.008,10.589c0,0,14.474,80.263,39.474,80.263s48.685-27.631,48.685-27.631
			c0,32.895-21.053,60.526-38.158,69.736c-17.105,9.211-49.921,39.475-49.921,39.475s-32.815-30.264-49.921-39.475
			c-17.105-9.21-38.158-36.842-38.158-69.736c0,0,23.684,27.631,48.684,27.631s39.475-80.263,39.475-80.263H99.008z"/>
	</g>
	<g>
		<path fill="#FFDB78" d="M139.75,94.816c0,29.807-18.205,53.971-40.663,53.971s-40.663-24.164-40.663-53.971
			c0-29.807,18.206-38.237,40.663-38.237S139.75,65.009,139.75,94.816z"/>
		<path d="M138.25,94.816c0,28.933-17.568,52.471-39.163,52.471c-21.595,0-39.163-23.538-39.163-52.471
			c0-24.72,12.811-36.737,39.163-36.737C125.44,58.079,138.25,70.096,138.25,94.816z M99.088,55.079
			c-27.978,0-42.163,13.37-42.163,39.737c0,30.587,18.914,55.471,42.163,55.471c23.249,0,42.163-24.884,42.163-55.471
			C141.25,68.449,127.065,55.079,99.088,55.079z"/>
	</g>
</g>
</svg>
